<svg width="80" height="80" viewBox="0 0 80 80" fill="none" xmlns="http://www.w3.org/2000/svg">
<path d="M36.5555 11.5083L11.5838 29.6516C10.5829 30.3796 9.83785 31.4055 9.45528 32.5826C9.0727 33.7597 9.07219 35.0276 9.45381 36.2049L18.9921 65.5599C19.3754 66.7368 20.121 67.7623 21.1224 68.4897C22.1237 69.2171 23.3295 69.6092 24.5671 69.6099H55.4338C56.6715 69.6092 57.8772 69.2171 58.8786 68.4897C59.8799 67.7623 60.6256 66.7368 61.0088 65.5599L70.5471 36.2049C70.9288 35.0276 70.9283 33.7597 70.5457 32.5826C70.1631 31.4055 69.4181 30.3796 68.4171 29.6516L43.4471 11.5083C42.4453 10.7812 41.2392 10.3896 40.0013 10.3896C38.7635 10.3896 37.5573 10.7812 36.5555 11.5083Z" stroke="#FEF5E2" stroke-linecap="round" stroke-linejoin="round"/>
<path d="M24.625 42.4029L34.7133 52.3529L54.3833 32.7812" stroke="#FEF5E2" stroke-linecap="round" stroke-linejoin="round"/>
</svg>
