<svg width="61" height="58" viewBox="0 0 61 58" fill="none" xmlns="http://www.w3.org/2000/svg">
<path d="M30.1836 56.0669C26.4841 56.0669 22.8208 55.3668 19.4029 54.0066C15.985 52.6464 12.8794 50.6527 10.2634 48.1393C7.64747 45.6259 5.57238 42.6421 4.15663 39.3582C2.74088 36.0743 2.01221 32.5547 2.01221 29.0003C2.01221 25.4458 2.74088 21.9262 4.15663 18.6423C5.57238 15.3584 7.64747 12.3746 10.2634 9.86124C12.8794 7.34786 15.985 5.35415 19.4029 3.99392C22.8208 2.63369 26.4841 1.93359 30.1836 1.93359C37.6552 1.93359 44.8207 4.78525 50.1038 9.86124C55.387 14.9372 58.3551 21.8217 58.3551 29.0003C58.3551 36.1788 55.387 43.0633 50.1038 48.1393C44.8207 53.2153 37.6552 56.0669 30.1836 56.0669ZM30.1836 56.0669V25.1336C30.1836 23.0826 31.0317 21.1156 32.5411 19.6653C34.0506 18.215 36.0979 17.4003 38.2326 17.4003H40.2449M20.1224 32.8669H40.2449" stroke="#FEF5E2"/>
</svg>
