<svg width="80" height="80" viewBox="0 0 80 80" fill="none" xmlns="http://www.w3.org/2000/svg">
<path d="M30 10H13.3333C12.4493 10 11.6014 10.3512 10.9763 10.9763C10.3512 11.6014 10 12.4493 10 13.3333V30C10 30.8841 10.3512 31.7319 10.9763 32.357C11.6014 32.9821 12.4493 33.3333 13.3333 33.3333H30C30.8841 33.3333 31.7319 32.9821 32.357 32.357C32.9821 31.7319 33.3333 30.8841 33.3333 30V13.3333C33.3333 12.4493 32.9821 11.6014 32.357 10.9763C31.7319 10.3512 30.8841 10 30 10ZM30 46.6667H13.3333C12.4493 46.6667 11.6014 47.0179 10.9763 47.643C10.3512 48.2681 10 49.1159 10 50V66.6667C10 67.5507 10.3512 68.3986 10.9763 69.0237C11.6014 69.6488 12.4493 70 13.3333 70H30C30.8841 70 31.7319 69.6488 32.357 69.0237C32.9821 68.3986 33.3333 67.5507 33.3333 66.6667V50C33.3333 49.1159 32.9821 48.2681 32.357 47.643C31.7319 47.0179 30.8841 46.6667 30 46.6667ZM58.3333 33.3333C59.8654 33.3333 61.3825 33.0316 62.798 32.4453C64.2134 31.859 65.4996 30.9996 66.5829 29.9162C67.6663 28.8329 68.5256 27.5468 69.1119 26.1313C69.6982 24.7158 70 23.1988 70 21.6667C70 20.1346 69.6982 18.6175 69.1119 17.202C68.5256 15.7866 67.6663 14.5004 66.5829 13.4171C65.4996 12.3337 64.2134 11.4744 62.798 10.8881C61.3825 10.3018 59.8654 10 58.3333 10C55.2391 10 52.2717 11.2292 50.0838 13.4171C47.8958 15.605 46.6667 18.5725 46.6667 21.6667C46.6667 24.7609 47.8958 27.7283 50.0838 29.9162C52.2717 32.1042 55.2391 33.3333 58.3333 33.3333ZM66.6667 46.6667H50C49.1159 46.6667 48.2681 47.0179 47.643 47.643C47.0179 48.2681 46.6667 49.1159 46.6667 50V66.6667C46.6667 67.5507 47.0179 68.3986 47.643 69.0237C48.2681 69.6488 49.1159 70 50 70H66.6667C67.5507 70 68.3986 69.6488 69.0237 69.0237C69.6488 68.3986 70 67.5507 70 66.6667V50C70 49.1159 69.6488 48.2681 69.0237 47.643C68.3986 47.0179 67.5507 46.6667 66.6667 46.6667Z" stroke="#FEF5E2" stroke-linejoin="round"/>
</svg>
