<svg width="80" height="80" viewBox="0 0 80 80" fill="none" xmlns="http://www.w3.org/2000/svg">
<path d="M24.5 35.5V54.5H5.5V35.5H24.5ZM9.5 50.5H20.5V39.5H9.5V50.5ZM49.5 13V32H30.5V13H49.5ZM34.5 28H45.5V17H34.5V28ZM24.5 5.5V24.5H5.5V5.5H24.5ZM9.5 20.5H20.5V9.5H9.5V20.5Z" stroke="#FEF5E2"/>
<path d="M74.5 25.5V74.5H25.5V55.5H40.5V40.5H55.5V25.5H74.5ZM29.5 70.5H40.5V59.5H29.5V70.5ZM44.5 70.5H55.5V59.5H44.5V70.5ZM59.5 70.5H70.5V59.5H59.5V70.5ZM44.5 55.5H55.5V44.5H44.5V55.5ZM59.5 55.5H70.5V44.5H59.5V55.5ZM59.5 40.5H70.5V29.5H59.5V40.5Z" stroke="#FEF5E2"/>
</svg>
