<svg width="644" height="150" viewBox="0 0 644 150" fill="none" xmlns="http://www.w3.org/2000/svg">
<mask id="mask0_262_163" style="mask-type:luminance" maskUnits="userSpaceOnUse" x="0" y="0" width="644" height="150">
<path d="M643.015 0H0V150H643.015V0Z" fill="white"/>
</mask>
<g mask="url(#mask0_262_163)">
<path d="M55.1851 0L4.57715 106.965H21.3832L33.1284 81.5569H93.4264L105.275 106.965H121.857L71.4214 0H55.1851ZM62.2497 18.2719C62.4049 17.9792 62.716 17.2802 63.2513 16.061L64.2187 18.2231L87.2944 68.1129H39.2946L62.2497 18.2719Z" fill="black"/>
<path d="M227.318 54.4787C233.139 49.3094 236.093 42.0267 236.093 32.8095C236.344 25.7732 233.891 18.8877 229.184 13.416C224.981 8.51373 219.36 4.86093 213 2.89824C206.298 0.900503 199.301 -0.076346 192.273 0.0046537H146.846V106.97H162.391V65.4516H188.473L225.85 106.905H245.178L206.402 64.1025C214.184 62.7719 221.423 59.4415 227.318 54.4787ZM220.409 32.7444C220.409 39.4907 217.818 44.3837 212.74 47.261C206.765 50.4313 199.974 51.9843 193.119 51.7478H162.27V13.7411H193.016C199.855 13.5091 206.634 15.0199 212.637 18.114C217.801 20.9588 220.375 25.8681 220.375 32.7444H220.409Z" fill="black"/>
<path d="M327.832 64.3091L281.145 0H268.035V106.965H283.528V27.4891L323.117 82.1423H332.531L372.153 27.4891V106.965H387.681V0H374.554L327.832 64.3091Z" fill="black"/>
<path d="M452.106 0L401.533 106.965H418.339L430.101 81.5569H490.45L502.196 106.965H518.829L468.446 0H452.106ZM460.535 16.76C460.846 17.4428 461.053 17.9142 461.174 18.1581L484.268 68.097H436.267L459.171 18.2556C459.344 17.9467 459.654 17.2477 460.19 16.0123L460.535 16.76Z" fill="black"/>
<path d="M603.362 64.1012C611.174 62.7887 618.437 59.4565 624.348 54.4778C630.169 49.3081 633.108 42.0092 633.108 32.8082C633.389 25.7843 630.969 18.9001 626.301 13.4147C622.095 8.52115 616.484 4.86997 610.135 2.89696C603.429 0.911343 596.437 -0.06522 589.406 0.00337805H543.81V106.969H559.251V65.4503H585.453L622.815 106.904H642.262L603.362 64.1012ZM617.337 32.7432C617.337 39.5057 614.765 44.3824 609.688 47.2597C603.71 50.426 596.918 51.9785 590.064 51.7465H559.304V13.7398H590.064C596.885 13.5166 603.648 15.0272 609.635 18.1127C614.817 20.9412 617.337 25.8668 617.337 32.7432Z" fill="black"/>
<path d="M9.29256 130.053C16.2015 130.053 19.3451 132.117 19.3451 136.994H15.1479C15.1479 134.442 12.8334 133.743 8.49799 133.743C4.69808 133.743 3.98992 134.718 3.98992 135.645C3.98992 136.572 5.71716 137.449 10.1216 138.213C15.787 139.14 19.5869 139.709 19.5869 144.244C19.5869 148.39 16.3915 149.999 10.3634 149.999C3.14358 149.999 0 147.934 0 143.058H4.11083C4.11083 145.496 6.85716 146.309 11.0198 146.309C14.3706 146.309 15.6488 145.512 15.6488 144.342C15.6488 142.716 13.4206 142.586 9.22345 141.904C5.02628 141.221 0 140.099 0 135.629C0 131.678 3.14357 130.053 9.29256 130.053Z" fill="black"/>
<path d="M55.4925 130.053C63.0234 130.053 66.6677 133.467 66.6677 140.002C66.6677 146.536 63.0234 149.95 55.4925 149.95C47.9617 149.95 44.3174 146.536 44.3174 140.002C44.3174 133.467 47.9445 130.053 55.4925 130.053ZM55.4925 145.886C59.7936 145.886 61.866 143.87 61.866 140.002C61.866 136.133 59.7936 134.068 55.4925 134.068C51.192 134.068 49.1019 136.1 49.1019 140.002C49.1019 143.903 51.1743 145.838 55.4925 145.838V145.886Z" fill="black"/>
<path d="M92.2007 149.332V121.177H96.778V149.332H92.2007Z" fill="black"/>
<path d="M127.315 130.561V140.672C127.315 143.825 128.352 145.841 132.618 145.841C136.401 145.841 138.404 143.825 138.404 139.956V130.561H142.981V149.336H138.404V146.719C137.648 147.811 136.592 148.689 135.349 149.262C134.105 149.834 132.719 150.079 131.34 149.97C125.554 149.97 122.704 147.499 122.704 141.062V130.561H127.315Z" fill="black"/>
<path d="M172.913 134.507H168.112V130.557H172.913L174.503 123.047H177.491V130.557H187.509V134.507H177.526V142.083C177.526 144.05 177.888 145.838 180.323 145.838C182.051 145.838 183.484 145.025 183.484 142.197H187.664C187.664 148.017 184.832 149.902 180.168 149.902C175.505 149.902 172.948 147.805 172.948 142.652L172.913 134.507Z" fill="black"/>
<path d="M215.195 122.038C217.268 122.038 218.2 122.932 218.2 124.851C218.262 125.234 218.228 125.627 218.098 125.996C217.969 126.365 217.749 126.7 217.456 126.974C217.163 127.248 216.806 127.454 216.413 127.573C216.02 127.693 215.603 127.724 215.195 127.663C213.088 127.663 212.207 126.736 212.207 124.851C212.207 122.965 213.088 122.038 215.195 122.038ZM212.881 130.556H217.544V149.332H212.881V130.556Z" fill="black"/>
<path d="M254.185 130.053C261.733 130.053 265.36 133.467 265.36 140.002C265.36 146.536 261.733 149.95 254.185 149.95C246.637 149.95 243.01 146.536 243.01 140.002C243.01 133.467 246.637 130.053 254.185 130.053ZM254.185 145.886C258.504 145.886 260.576 143.87 260.576 140.002C260.576 136.133 258.504 134.068 254.185 134.068C249.867 134.068 247.794 136.1 247.794 140.002C247.794 143.903 249.884 145.838 254.185 145.838V145.886Z" fill="black"/>
<path d="M306.565 149.337V139.241C306.565 135.99 305.528 134.024 301.262 134.024C297.462 134.024 295.476 136.055 295.476 139.908V149.337H290.881V130.561H295.476V133.194C296.225 132.097 297.28 131.213 298.525 130.639C299.771 130.066 301.16 129.825 302.54 129.943C308.327 129.943 311.176 132.414 311.176 138.803V149.272L306.565 149.337Z" fill="black"/>
<path d="M345.678 130.053C352.587 130.053 355.73 132.117 355.73 136.994H351.533C351.533 134.442 349.219 133.743 344.866 133.743C341.083 133.743 340.358 134.718 340.358 135.645C340.358 136.572 342.085 137.449 346.507 138.213C352.172 139.14 355.972 139.709 355.972 144.244C355.972 148.39 352.777 149.999 346.749 149.999C339.529 149.999 336.299 147.934 336.299 143.058H340.479C340.479 145.496 343.242 146.309 347.388 146.309C350.739 146.309 352.017 145.512 352.017 144.342C352.017 142.716 349.771 142.586 345.591 141.904C341.411 141.221 336.402 140.18 336.402 135.71C336.368 131.678 339.529 130.053 345.678 130.053Z" fill="black"/>
<path d="M619.007 149.564H382.376C381.94 149.544 381.521 149.396 381.178 149.142C380.834 148.887 380.583 148.538 380.46 148.143C380.337 147.749 380.347 147.328 380.489 146.939C380.631 146.549 380.898 146.212 381.254 145.972L400.633 133.195C401.832 132.401 403.262 131.976 404.727 131.976H641.203C641.598 131.993 641.98 132.126 642.289 132.357C642.604 132.588 642.827 132.905 642.942 133.264C643.051 133.622 643.037 134.004 642.908 134.356C642.775 134.708 642.532 135.013 642.203 135.227L621.908 148.638C621.07 149.226 620.055 149.55 619.007 149.564Z" fill="url(#paint0_linear_262_163)"/>
</g>
<defs>
<linearGradient id="paint0_linear_262_163" x1="380.442" y1="140.737" x2="643.018" y2="140.737" gradientUnits="userSpaceOnUse">
<stop offset="0.01"/>
<stop offset="0.96" stop-color="#2F83FF"/>
</linearGradient>
</defs>
</svg>
