<svg width="480" height="120" viewBox="0 0 480 120" fill="none" xmlns="http://www.w3.org/2000/svg">
<path d="M29.4729 78.084H19.4849V104H13.4569V78.084H3.46889V72.76H29.4729V78.084ZM57.3926 104.22C55.1046 104.22 53.0219 103.78 51.1446 102.9C49.2966 102.02 47.6979 100.832 46.3486 99.336C45.0286 97.8107 44.0019 96.1093 43.2686 94.232C42.5353 92.3253 42.1686 90.3747 42.1686 88.38C42.1686 86.2973 42.5499 84.3173 43.3126 82.44C44.1046 80.5333 45.1753 78.8467 46.5246 77.38C47.9033 75.884 49.5166 74.7107 51.3646 73.86C53.2419 72.98 55.2953 72.54 57.5246 72.54C59.7833 72.54 61.8366 72.9947 63.6846 73.904C65.5619 74.8133 67.1606 76.0307 68.4806 77.556C69.8006 79.0813 70.8273 80.7827 71.5606 82.66C72.2939 84.5373 72.6606 86.4733 72.6606 88.468C72.6606 90.5213 72.2793 92.5013 71.5166 94.408C70.7539 96.2853 69.6833 97.972 68.3046 99.468C66.9553 100.935 65.3419 102.093 63.4646 102.944C61.6166 103.795 59.5926 104.22 57.3926 104.22ZM48.3286 88.38C48.3286 89.7293 48.5339 91.0347 48.9446 92.296C49.3553 93.5573 49.9419 94.6867 50.7046 95.684C51.4966 96.652 52.4499 97.4293 53.5646 98.016C54.7086 98.5733 55.9993 98.852 57.4366 98.852C58.9033 98.852 60.2086 98.5587 61.3526 97.972C62.4966 97.356 63.4499 96.5493 64.2126 95.552C64.9753 94.5253 65.5473 93.396 65.9286 92.164C66.3393 90.9027 66.5446 89.6413 66.5446 88.38C66.5446 87.0307 66.3246 85.74 65.8846 84.508C65.4739 83.2467 64.8726 82.132 64.0806 81.164C63.3179 80.1667 62.3646 79.3893 61.2206 78.832C60.1059 78.2453 58.8446 77.952 57.4366 77.952C55.9406 77.952 54.6206 78.26 53.4766 78.876C52.3619 79.4627 51.4233 80.2547 50.6606 81.252C49.8979 82.2493 49.3113 83.364 48.9006 84.596C48.5193 85.828 48.3286 87.0893 48.3286 88.38ZM113.926 95.948C113.926 97.708 113.472 99.1893 112.562 100.392C111.653 101.565 110.421 102.46 108.866 103.076C107.341 103.692 105.669 104 103.85 104H88.7584V72.76H105.478C106.945 72.76 108.206 73.156 109.262 73.948C110.348 74.7107 111.169 75.708 111.726 76.94C112.313 78.1427 112.606 79.404 112.606 80.724C112.606 82.22 112.225 83.6427 111.462 84.992C110.7 86.3413 109.585 87.3387 108.118 87.984C109.908 88.512 111.316 89.4653 112.342 90.844C113.398 92.2227 113.926 93.924 113.926 95.948ZM107.81 94.804C107.81 94.012 107.649 93.308 107.326 92.692C107.004 92.0467 106.564 91.548 106.006 91.196C105.478 90.8147 104.862 90.624 104.158 90.624H94.8304V98.852H103.85C104.584 98.852 105.244 98.676 105.83 98.324C106.446 97.9427 106.93 97.444 107.282 96.828C107.634 96.212 107.81 95.5373 107.81 94.804ZM94.8304 77.952V85.828H102.926C103.601 85.828 104.217 85.6667 104.774 85.344C105.332 85.0213 105.772 84.5667 106.094 83.98C106.446 83.3933 106.622 82.6893 106.622 81.868C106.622 81.076 106.461 80.3867 106.138 79.8C105.845 79.2133 105.434 78.7587 104.906 78.436C104.408 78.1133 103.836 77.952 103.19 77.952H94.8304ZM156.471 71.88L155.503 77.248H157.263V83.188H151.323V77.16L152.907 71.88H156.471ZM164.743 71.88L163.775 77.248H165.535V83.188H159.595V77.16L161.179 71.88H164.743ZM182.721 104V72.76H188.749V85.344H191.829L201.113 72.76H207.889L196.537 87.896L208.769 104H201.421L191.741 90.844H188.749V104H182.721ZM223.794 104V80.944H229.69V104H223.794ZM223.794 77.732V71.88H229.69V77.732H223.794ZM246.449 104V80.944H259.297C260.881 80.944 262.157 81.208 263.125 81.736C264.122 82.264 264.856 82.9533 265.325 83.804C265.794 84.6547 266.029 85.564 266.029 86.532C266.029 87.8227 265.736 88.952 265.149 89.92C264.592 90.888 263.712 91.636 262.509 92.164C263.858 92.5453 264.958 93.2053 265.809 94.144C266.66 95.0533 267.085 96.256 267.085 97.752C267.085 99.1893 266.748 100.377 266.073 101.316C265.398 102.225 264.43 102.9 263.169 103.34C261.908 103.78 260.412 104 258.681 104H246.449ZM252.037 99.996H258.505C259.033 99.996 259.517 99.864 259.957 99.6C260.397 99.336 260.734 98.984 260.969 98.544C261.233 98.104 261.365 97.62 261.365 97.092C261.365 96.5347 261.248 96.0507 261.013 95.64C260.778 95.2 260.441 94.8627 260.001 94.628C259.59 94.364 259.106 94.232 258.549 94.232H252.037V99.996ZM252.037 90.536H257.801C258.329 90.536 258.798 90.404 259.209 90.14C259.62 89.876 259.928 89.524 260.133 89.084C260.368 88.644 260.485 88.16 260.485 87.632C260.485 86.8693 260.236 86.2387 259.737 85.74C259.268 85.212 258.637 84.948 257.845 84.948H252.037V90.536ZM282.811 104V80.944H288.707V104H282.811ZM282.811 77.732V71.88H288.707V77.732H282.811ZM305.334 94.584V89.26H318.666V94.584H305.334ZM355.756 104V78.084H346.604L346.428 83.364C346.282 87.5 345.944 90.9173 345.416 93.616C344.888 96.3147 344.126 98.4413 343.128 99.996C342.131 101.521 340.87 102.607 339.344 103.252C337.848 103.868 336.044 104.176 333.932 104.176V98.94C335.018 98.94 335.956 98.7053 336.748 98.236C337.54 97.7667 338.2 96.916 338.728 95.684C339.286 94.452 339.726 92.7067 340.048 90.448C340.371 88.1893 340.591 85.2707 340.708 81.692L341.016 72.76H361.784V104H355.756ZM403.157 78.084H393.169V104H387.141V78.084H377.153V72.76H403.157V78.084ZM413.617 109.984V98.676H415.289C416.081 98.676 416.77 98.368 417.357 97.752C417.944 97.136 418.442 96.1533 418.853 94.804C419.264 93.4547 419.586 91.7093 419.821 89.568C420.085 87.3973 420.261 84.772 420.349 81.692L420.613 72.76H441.425V98.676H445.561V109.984H440.237V104H418.941V109.984H413.617ZM422.549 98.676H435.397V78.084H426.113L426.025 82.484C425.937 85.5347 425.761 88.1307 425.497 90.272C425.262 92.4133 424.91 94.1733 424.441 95.552C424.001 96.9307 423.37 97.972 422.549 98.676ZM461.536 82.924L462.548 77.512H460.788V71.616H466.684V77.644L465.144 82.924H461.536ZM469.808 82.924L470.82 77.512H469.06V71.616H474.956V77.644L473.416 82.924H469.808Z" fill="#FFBC35"/>
<path d="M1.47709 24.76C1.47709 23.2867 1.72643 21.8473 2.22509 20.442C2.74643 19.014 3.49443 17.722 4.46909 16.566C5.46643 15.3873 6.67909 14.458 8.10709 13.778C9.53509 13.0753 11.1558 12.724 12.9691 12.724C15.1224 12.724 16.9698 13.2227 18.5111 14.22C20.0524 15.1947 21.1971 16.4527 21.9451 17.994L19.5311 19.558C19.0551 18.538 18.4431 17.7333 17.6951 17.144C16.9698 16.532 16.1764 16.1013 15.3151 15.852C14.4764 15.6027 13.6491 15.478 12.8331 15.478C11.4958 15.478 10.3058 15.75 9.26309 16.294C8.24309 16.838 7.38176 17.5633 6.67909 18.47C5.97643 19.3767 5.44376 20.3967 5.08109 21.53C4.74109 22.6407 4.57109 23.7627 4.57109 24.896C4.57109 26.1427 4.77509 27.344 5.18309 28.5C5.61376 29.656 6.20309 30.676 6.95109 31.56C7.69909 32.444 8.58309 33.1467 9.60309 33.668C10.6231 34.1893 11.7338 34.45 12.9351 34.45C13.7738 34.45 14.6351 34.3027 15.5191 34.008C16.4031 33.7133 17.2304 33.26 18.0011 32.648C18.7718 32.0133 19.3838 31.1973 19.8371 30.2L22.3871 31.594C21.8884 32.7953 21.1178 33.8153 20.0751 34.654C19.0324 35.4927 17.8651 36.1273 16.5731 36.558C15.3038 36.9887 14.0458 37.204 12.7991 37.204C11.1444 37.204 9.62576 36.8527 8.24309 36.15C6.86043 35.4247 5.65909 34.4727 4.63909 33.294C3.64176 32.0927 2.85976 30.7553 2.29309 29.282C1.74909 27.786 1.47709 26.2787 1.47709 24.76ZM34.5809 37V19.252H37.5729V37H34.5809ZM34.5809 15.92V12.18H37.5729V15.92H34.5809ZM49.6928 37.136V34.45C50.2821 34.45 50.8035 34.3027 51.2568 34.008C51.7328 33.6907 52.1521 33.1693 52.5148 32.444C52.8775 31.696 53.1608 30.676 53.3648 29.384C53.5915 28.0693 53.7388 26.4033 53.8068 24.386L54.0108 19.252H66.0808V37H63.0888V21.904H56.6628L56.5948 24.658C56.5041 27.0833 56.3001 29.1007 55.9828 30.71C55.6655 32.3193 55.2235 33.5887 54.6568 34.518C54.0901 35.4473 53.3875 36.116 52.5488 36.524C51.7328 36.932 50.7808 37.136 49.6928 37.136ZM79.7191 37V19.252H82.7111V25.304H87.1311C89.2164 25.304 90.7917 25.8367 91.8571 26.902C92.9451 27.9447 93.4891 29.316 93.4891 31.016C93.4891 32.1493 93.2511 33.1693 92.7751 34.076C92.3217 34.9827 91.6417 35.6967 90.7351 36.218C89.8284 36.7393 88.6951 37 87.3351 37H79.7191ZM82.7111 34.654H86.9271C87.7657 34.654 88.4344 34.4953 88.9331 34.178C89.4544 33.838 89.8397 33.396 90.0891 32.852C90.3384 32.308 90.4631 31.7187 90.4631 31.084C90.4631 30.472 90.3497 29.9053 90.1231 29.384C89.8964 28.8627 89.5224 28.4433 89.0011 28.126C88.4797 27.8087 87.7657 27.65 86.8591 27.65H82.7111V34.654ZM105.559 37V19.252H116.507V21.904H108.551V37H105.559ZM136.164 37.34C134.826 37.34 133.614 37.102 132.526 36.626C131.438 36.1273 130.497 35.4587 129.704 34.62C128.91 33.7587 128.298 32.7727 127.868 31.662C127.437 30.5513 127.222 29.384 127.222 28.16C127.222 26.9133 127.437 25.7347 127.868 24.624C128.298 23.5133 128.91 22.5387 129.704 21.7C130.497 20.8387 131.438 20.17 132.526 19.694C133.636 19.1953 134.849 18.946 136.164 18.946C137.501 18.946 138.714 19.1953 139.802 19.694C140.89 20.17 141.83 20.8387 142.624 21.7C143.44 22.5387 144.063 23.5133 144.494 24.624C144.924 25.7347 145.14 26.9133 145.14 28.16C145.14 29.384 144.924 30.5513 144.494 31.662C144.063 32.7727 143.451 33.7587 142.658 34.62C141.864 35.4587 140.912 36.1273 139.802 36.626C138.714 37.102 137.501 37.34 136.164 37.34ZM130.282 28.194C130.282 29.418 130.542 30.5287 131.064 31.526C131.608 32.5233 132.322 33.3167 133.206 33.906C134.09 34.4727 135.076 34.756 136.164 34.756C137.252 34.756 138.238 34.4613 139.122 33.872C140.028 33.2827 140.742 32.4893 141.264 31.492C141.808 30.472 142.08 29.35 142.08 28.126C142.08 26.902 141.808 25.7913 141.264 24.794C140.742 23.7967 140.028 23.0033 139.122 22.414C138.238 21.8247 137.252 21.53 136.164 21.53C135.076 21.53 134.09 21.836 133.206 22.448C132.322 23.0373 131.608 23.8307 131.064 24.828C130.542 25.8253 130.282 26.9473 130.282 28.194ZM165.459 37.34C164.122 37.34 162.898 37.102 161.787 36.626C160.699 36.1273 159.747 35.4473 158.931 34.586C158.138 33.7247 157.514 32.7387 157.061 31.628C156.63 30.5173 156.415 29.3387 156.415 28.092C156.415 26.4147 156.789 24.8847 157.537 23.502C158.285 22.1193 159.339 21.02 160.699 20.204C162.059 19.3653 163.634 18.946 165.425 18.946C167.17 18.946 168.689 19.3427 169.981 20.136C171.296 20.9067 172.27 21.9493 172.905 23.264L169.981 24.182C169.528 23.3433 168.893 22.6973 168.077 22.244C167.261 21.768 166.354 21.53 165.357 21.53C164.269 21.53 163.272 21.8133 162.365 22.38C161.481 22.9467 160.778 23.7287 160.257 24.726C159.736 25.7007 159.475 26.8227 159.475 28.092C159.475 29.3387 159.736 30.472 160.257 31.492C160.801 32.4893 161.515 33.2827 162.399 33.872C163.306 34.4613 164.303 34.756 165.391 34.756C166.094 34.756 166.762 34.6313 167.397 34.382C168.054 34.1327 168.621 33.804 169.097 33.396C169.596 32.9653 169.936 32.5007 170.117 32.002L173.041 32.886C172.678 33.7473 172.123 34.518 171.375 35.198C170.65 35.8553 169.777 36.3767 168.757 36.762C167.76 37.1473 166.66 37.34 165.459 37.34ZM185.237 37V19.252H199.959V37H196.967V21.904H188.229V37H185.237ZM231.04 37V19.252H240.22C241.286 19.252 242.17 19.4673 242.872 19.898C243.575 20.306 244.096 20.8387 244.436 21.496C244.799 22.1533 244.98 22.856 244.98 23.604C244.98 24.556 244.754 25.4173 244.3 26.188C243.847 26.936 243.19 27.5027 242.328 27.888C243.348 28.1827 244.176 28.7153 244.81 29.486C245.445 30.234 245.762 31.1633 245.762 32.274C245.762 33.2713 245.524 34.1213 245.048 34.824C244.572 35.5267 243.904 36.0707 243.042 36.456C242.181 36.8187 241.184 37 240.05 37H231.04ZM233.896 34.892H239.982C240.526 34.892 241.014 34.756 241.444 34.484C241.898 34.212 242.249 33.8493 242.498 33.396C242.748 32.9427 242.872 32.4667 242.872 31.968C242.872 31.424 242.748 30.9367 242.498 30.506C242.272 30.0527 241.943 29.7013 241.512 29.452C241.104 29.18 240.628 29.044 240.084 29.044H233.896V34.892ZM233.896 27.072H239.438C239.982 27.072 240.458 26.936 240.866 26.664C241.274 26.3693 241.592 25.9953 241.818 25.542C242.045 25.0887 242.158 24.6127 242.158 24.114C242.158 23.366 241.909 22.72 241.41 22.176C240.934 21.632 240.311 21.36 239.54 21.36H233.896V27.072ZM258.374 37V19.286H261.366V32.988L271.294 19.252H274.014V37H271.022V23.57L261.23 37H258.374ZM297.189 37.34C295.738 37.34 294.446 36.9773 293.313 36.252C292.18 35.5267 291.284 34.6087 290.627 33.498V44.242H287.635V19.252H290.287V22.584C290.99 21.496 291.908 20.6233 293.041 19.966C294.174 19.286 295.41 18.946 296.747 18.946C297.971 18.946 299.093 19.1953 300.113 19.694C301.133 20.1927 302.017 20.8727 302.765 21.734C303.513 22.5953 304.091 23.5813 304.499 24.692C304.93 25.78 305.145 26.9247 305.145 28.126C305.145 29.8033 304.805 31.3447 304.125 32.75C303.468 34.1553 302.538 35.2773 301.337 36.116C300.136 36.932 298.753 37.34 297.189 37.34ZM296.271 34.756C297.155 34.756 297.948 34.5747 298.651 34.212C299.376 33.8267 299.988 33.328 300.487 32.716C301.008 32.0813 301.405 31.3673 301.677 30.574C301.949 29.7807 302.085 28.9647 302.085 28.126C302.085 27.242 301.926 26.4033 301.609 25.61C301.314 24.8167 300.884 24.114 300.317 23.502C299.773 22.89 299.127 22.414 298.379 22.074C297.654 21.7113 296.86 21.53 295.999 21.53C295.455 21.53 294.888 21.632 294.299 21.836C293.732 22.04 293.188 22.3347 292.667 22.72C292.146 23.0827 291.704 23.502 291.341 23.978C290.978 24.454 290.74 24.964 290.627 25.508V30.574C290.967 31.3447 291.42 32.0473 291.987 32.682C292.554 33.3167 293.211 33.8267 293.959 34.212C294.707 34.5747 295.478 34.756 296.271 34.756ZM325.411 37.34C324.073 37.34 322.861 37.102 321.773 36.626C320.685 36.1273 319.744 35.4587 318.951 34.62C318.157 33.7587 317.545 32.7727 317.115 31.662C316.684 30.5513 316.469 29.384 316.469 28.16C316.469 26.9133 316.684 25.7347 317.115 24.624C317.545 23.5133 318.157 22.5387 318.951 21.7C319.744 20.8387 320.685 20.17 321.773 19.694C322.883 19.1953 324.096 18.946 325.411 18.946C326.748 18.946 327.961 19.1953 329.049 19.694C330.137 20.17 331.077 20.8387 331.871 21.7C332.687 22.5387 333.31 23.5133 333.741 24.624C334.171 25.7347 334.387 26.9133 334.387 28.16C334.387 29.384 334.171 30.5513 333.741 31.662C333.31 32.7727 332.698 33.7587 331.905 34.62C331.111 35.4587 330.159 36.1273 329.049 36.626C327.961 37.102 326.748 37.34 325.411 37.34ZM319.529 28.194C319.529 29.418 319.789 30.5287 320.311 31.526C320.855 32.5233 321.569 33.3167 322.453 33.906C323.337 34.4727 324.323 34.756 325.411 34.756C326.499 34.756 327.485 34.4613 328.369 33.872C329.275 33.2827 329.989 32.4893 330.511 31.492C331.055 30.472 331.327 29.35 331.327 28.126C331.327 26.902 331.055 25.7913 330.511 24.794C329.989 23.7967 329.275 23.0033 328.369 22.414C327.485 21.8247 326.499 21.53 325.411 21.53C324.323 21.53 323.337 21.836 322.453 22.448C321.569 23.0373 320.855 23.8307 320.311 24.828C319.789 25.8253 319.529 26.9473 319.529 28.194ZM355.216 37.34C352.292 37.34 350.082 36.456 348.586 34.688C347.09 32.92 346.342 30.4267 346.342 27.208C346.342 25.0093 346.524 23.162 346.886 21.666C347.249 20.1473 347.793 18.9007 348.518 17.926C349.244 16.9287 350.139 16.124 351.204 15.512C352.27 14.8773 353.494 14.356 354.876 13.948L362.39 11.67L362.56 14.254L355.25 16.464C354.004 16.872 352.961 17.3933 352.122 18.028C351.284 18.6627 350.626 19.4787 350.15 20.476C349.674 21.4733 349.357 22.754 349.198 24.318C349.788 23.1167 350.672 22.1873 351.85 21.53C353.029 20.85 354.4 20.51 355.964 20.51C357.642 20.51 359.081 20.8613 360.282 21.564C361.506 22.244 362.436 23.2073 363.07 24.454C363.728 25.678 364.056 27.0947 364.056 28.704C364.056 30.4267 363.716 31.934 363.036 33.226C362.356 34.518 361.359 35.5267 360.044 36.252C358.73 36.9773 357.12 37.34 355.216 37.34ZM355.216 34.756C357.052 34.756 358.469 34.2233 359.466 33.158C360.486 32.07 360.996 30.6307 360.996 28.84C360.996 27.0947 360.498 25.678 359.5 24.59C358.503 23.502 357.075 22.958 355.216 22.958C354.128 22.958 353.142 23.1847 352.258 23.638C351.397 24.0913 350.706 24.76 350.184 25.644C349.686 26.5053 349.436 27.5707 349.436 28.84C349.436 29.9733 349.652 30.9933 350.082 31.9C350.536 32.784 351.193 33.4867 352.054 34.008C352.916 34.5067 353.97 34.756 355.216 34.756ZM376.51 37V19.252H379.502V26.596H388.75V19.252H391.742V37H388.75V29.248H379.502V37H376.51ZM405.371 37V19.286H408.363V32.988L418.291 19.252H421.011V37H418.019V23.57L408.227 37H405.371ZM434.598 37V19.252H437.59V26.562H439.562L445.138 19.252H448.538L441.908 27.854L449.32 37H445.852L439.562 29.316H437.59V37H434.598Z" fill="#043129"/>
</svg>
