<svg width="1463" height="639" viewBox="0 0 1463 639" fill="none" xmlns="http://www.w3.org/2000/svg">
<path d="M1316.71 575.685L1271.32 452.81L1297.69 452.575L1330.14 544.557L1324.31 544.09L1359.56 472.236H1375.27L1410.77 544.323L1403.92 544.79L1436.63 452.81H1463L1418.12 575.685H1400.12L1363.1 497.514L1368.94 498.216L1334.45 575.685H1316.71Z" fill="#FEF5E2"/>
<path d="M1192.8 578.026C1179.79 578.026 1168.13 575.296 1157.82 569.836C1147.67 564.218 1139.65 556.651 1133.73 547.133C1127.81 537.459 1124.86 526.458 1124.86 514.132C1124.86 501.805 1127.81 490.883 1133.73 481.365C1139.65 471.691 1147.67 464.124 1157.82 458.662C1168.13 453.046 1179.79 450.237 1192.8 450.237C1205.65 450.237 1217.15 453.046 1227.29 458.662C1237.6 464.124 1245.71 471.691 1251.63 481.365C1257.54 490.883 1260.5 501.805 1260.5 514.132C1260.5 526.458 1257.54 537.459 1251.63 547.133C1245.71 556.651 1237.6 564.218 1227.29 569.836C1217.15 575.296 1205.65 578.026 1192.8 578.026ZM1192.8 556.027C1200.75 556.027 1207.85 554.232 1214.1 550.644C1220.36 546.898 1225.26 541.905 1228.81 535.664C1232.36 529.267 1234.05 522.09 1233.88 514.132C1234.05 506.019 1232.36 498.841 1228.81 492.599C1225.26 486.202 1220.36 481.209 1214.1 477.621C1207.85 474.031 1200.75 472.238 1192.8 472.238C1184.86 472.238 1177.68 474.11 1171.25 477.854C1165 481.442 1160.1 486.437 1156.55 492.834C1153 499.075 1151.31 506.175 1151.48 514.132C1151.31 522.09 1153 529.267 1156.55 535.664C1160.1 541.905 1165 546.898 1171.25 550.644C1177.68 554.232 1184.86 556.027 1192.8 556.027Z" fill="#FEF5E2"/>
<path d="M1036.41 575.687V452.811H1062.78V491.429L1060.24 482.067C1062.1 476.138 1065.23 470.754 1069.62 465.917C1074.18 461.081 1079.34 457.258 1085.09 454.449C1091 451.641 1097.09 450.237 1103.34 450.237C1106.21 450.237 1108.92 450.47 1111.45 450.939C1114.16 451.407 1116.27 451.953 1117.79 452.577L1110.95 478.791C1108.92 478.01 1106.64 477.386 1104.1 476.919C1101.74 476.294 1099.37 475.982 1097 475.982C1092.44 475.982 1088.04 476.84 1083.82 478.556C1079.76 480.116 1076.13 482.379 1072.92 485.344C1069.87 488.153 1067.42 491.507 1065.56 495.408C1063.7 499.152 1062.78 503.287 1062.78 507.812V575.687H1036.41Z" fill="#FEF5E2"/>
<path d="M949.96 578.026C936.268 578.026 924.099 575.374 913.45 570.068C902.969 564.607 894.688 557.196 888.602 547.834C882.687 538.472 879.728 527.706 879.728 515.534C879.728 505.861 881.418 497.045 884.798 489.087C888.179 481.13 892.829 474.265 898.744 468.491C904.83 462.563 912.012 458.038 920.295 454.917C928.746 451.641 937.873 450.001 947.678 450.001C956.298 450.001 964.326 451.562 971.765 454.683C979.201 457.647 985.625 461.782 991.034 467.087C996.611 472.393 1000.84 478.711 1003.71 486.045C1006.75 493.222 1008.19 501.102 1008.02 509.684L1007.77 519.983H898.998L893.166 500.791H985.202L981.398 504.77V499.152C980.892 494.003 979.033 489.399 975.821 485.343C972.609 481.286 968.553 478.088 963.651 475.746C958.749 473.407 953.424 472.237 947.678 472.237C938.551 472.237 930.86 473.874 924.605 477.151C918.35 480.272 913.619 484.953 910.407 491.194C907.195 497.28 905.59 504.847 905.59 513.897C905.59 522.478 907.533 529.968 911.42 536.365C915.309 542.607 920.801 547.444 927.902 550.876C935.001 554.309 943.198 556.026 952.494 556.026C959.087 556.026 965.172 555.011 970.75 552.983C976.496 550.955 982.666 547.288 989.258 541.983L1002.44 559.068C998.387 562.813 993.399 566.089 987.484 568.898C981.736 571.707 975.567 573.97 968.974 575.686C962.553 577.246 956.214 578.026 949.96 578.026Z" fill="#FEF5E2"/>
<path d="M727.893 627.174V452.809H754.262V480.895L750.204 478.788C751.219 474.107 754.093 469.659 758.825 465.447C763.558 461.078 769.306 457.567 776.065 454.915C782.997 452.106 790.096 450.702 797.364 450.702C809.365 450.702 820.013 453.432 829.311 458.894C838.607 464.355 845.96 471.845 851.369 481.363C856.777 490.88 859.482 501.803 859.482 514.13C859.482 526.299 856.777 537.222 851.369 546.896C846.129 556.413 838.861 563.982 829.563 569.598C820.268 575.06 809.788 577.791 798.125 577.791C790.349 577.791 782.827 576.386 775.559 573.577C768.291 570.612 762.122 566.868 757.051 562.343C751.98 557.818 748.853 553.137 747.67 548.3L754.262 545.023V627.174H727.893ZM793.815 555.555C801.589 555.555 808.519 553.762 814.605 550.172C820.691 546.584 825.507 541.668 829.057 535.428C832.606 529.187 834.38 522.087 834.38 514.13C834.38 506.172 832.606 499.15 829.057 493.064C825.676 486.823 820.943 481.909 814.859 478.319C808.773 474.731 801.758 472.937 793.815 472.937C785.87 472.937 778.856 474.731 772.77 478.319C766.686 481.753 761.868 486.59 758.318 492.831C754.769 499.073 752.995 506.172 752.995 514.13C752.995 522.087 754.769 529.187 758.318 535.428C761.868 541.668 766.686 546.584 772.77 550.172C778.856 553.762 785.87 555.555 793.815 555.555Z" fill="#FEF5E2"/>
<path d="M631.035 578.025C621.401 578.025 612.443 576.856 604.16 574.516C596.047 572.174 588.61 568.665 581.849 563.984C575.256 559.147 569.339 553.217 564.1 546.195L582.862 526.301C591.145 537.223 599.089 544.79 606.695 549.004C614.302 553.217 623.344 555.324 633.825 555.324C640.247 555.324 646.079 554.387 651.318 552.515C656.558 550.643 660.699 548.069 663.742 544.79C666.785 541.514 668.307 537.77 668.307 533.556C668.307 530.749 667.798 528.096 666.785 525.599C665.77 523.103 664.165 520.84 661.967 518.812C659.939 516.783 657.235 514.911 653.855 513.195C650.643 511.478 646.839 509.995 642.446 508.748C638.05 507.344 632.979 506.174 627.233 505.237C618.104 503.521 610.161 501.258 603.4 498.449C596.638 495.64 590.976 492.131 586.411 487.917C581.849 483.704 578.468 478.946 576.269 473.641C574.073 468.179 572.974 462.094 572.974 455.385C572.974 448.831 574.496 442.746 577.538 437.128C580.75 431.512 585.06 426.675 590.469 422.617C596.047 418.405 602.554 415.206 609.992 413.022C617.429 410.681 625.457 409.511 634.078 409.511C643.205 409.511 651.572 410.604 659.178 412.788C666.785 414.971 673.546 418.25 679.462 422.617C685.379 426.831 690.279 432.058 694.168 438.299L674.897 455.852C671.517 450.704 667.715 446.413 663.488 442.981C659.263 439.391 654.615 436.739 649.544 435.023C644.474 433.149 639.065 432.214 633.317 432.214C626.724 432.214 620.978 433.149 616.076 435.023C611.174 436.895 607.287 439.548 604.413 442.981C601.709 446.257 600.357 450.157 600.357 454.682C600.357 457.959 601.032 461.002 602.385 463.81C603.737 466.463 605.765 468.881 608.471 471.065C611.343 473.095 615.147 474.967 619.88 476.683C624.613 478.243 630.274 479.648 636.866 480.896C646.164 482.769 654.447 485.187 661.714 488.152C668.982 490.959 675.151 494.315 680.222 498.216C685.293 502.116 689.097 506.486 691.632 511.322C694.337 516.159 695.689 521.387 695.689 527.003C695.689 537.458 693.069 546.508 687.83 554.153C682.588 561.798 675.151 567.728 665.516 571.941C655.883 575.997 644.388 578.025 631.035 578.025Z" fill="#FEF5E2"/>
<g filter="url(#filter0_d_627_1505)">
<path d="M269.172 465.423C253.609 458.501 236.983 454.775 220.15 454.437C215.04 454.333 210.05 454.232 205.162 455.031L204.33 455.014C204.223 461.782 204.543 468.552 205.288 475.273C209.24 510.421 224.846 542.848 249.23 566.576C273.612 590.307 305.129 603.739 337.974 604.404C343.415 604.559 348.859 604.326 354.27 603.709C354.682 574.098 346.775 545.047 331.586 520.367C316.4 495.687 294.643 476.535 269.172 465.423Z" fill="#FEF5E2"/>
<path d="M340.851 511.445C358.171 535.385 367.308 565.106 366.707 595.541C366.672 597.458 366.644 599.118 366.614 600.906C383.674 596.828 399.734 588.834 413.716 577.464C427.699 566.092 439.278 551.607 447.68 534.98C456.082 518.351 461.114 499.965 462.432 481.054C463.753 462.142 461.333 443.144 455.334 425.333C430.475 425.458 406.234 433.752 385.799 449.123C365.365 464.493 349.693 486.22 340.851 511.445Z" fill="#FEF5E2"/>
<path fill-rule="evenodd" clip-rule="evenodd" d="M325.081 265.469C241.521 225.515 164.646 171.036 97.559 104.208C65.6416 73.4903 36.4977 39.6037 10.5156 3C11.1374 35.6003 18.1778 67.6906 31.1737 97.1607C83.2693 213.778 221.9 268.741 328.562 293.863C328.039 284.311 326.532 273.775 325.081 265.469Z" fill="#FEF5E2"/>
<path fill-rule="evenodd" clip-rule="evenodd" d="M327.355 313.35C218.953 285.795 118.01 231.044 32.6777 153.472C64.1989 296.056 206.909 332.843 320.102 338.659C323.82 330.12 326.09 321.6 327.355 313.35Z" fill="#FEF5E2"/>
<path fill-rule="evenodd" clip-rule="evenodd" d="M311.987 351.365C227.913 344.898 145.831 320.388 70.4526 279.238C111.388 366.759 194.368 389.884 275.798 388.005C290.283 378.035 300.533 367.584 307.82 357.548C309.313 355.495 310.698 353.433 311.987 351.365Z" fill="#FEF5E2"/>
<path fill-rule="evenodd" clip-rule="evenodd" d="M261.126 398.325C212.544 396.571 164.463 386.559 118.605 368.607C138.896 401.358 166.373 419.157 196.698 427.104L241.615 407.79C248.687 404.75 255.174 401.584 261.126 398.325Z" fill="#FEF5E2"/>
<path fill-rule="evenodd" clip-rule="evenodd" d="M184.332 470.983C184.503 473.332 184.72 475.676 184.982 478.016L184.984 478.035L184.986 478.053C185.279 480.626 185.626 483.184 186.026 485.73L117.612 528.233L101.681 538.602L90.1183 545.114L3 596.101V553.784L184.332 470.983Z" fill="#FEF5E2"/>
<path fill-rule="evenodd" clip-rule="evenodd" d="M187.717 498.528C188.858 503.487 190.203 508.376 191.746 513.182L79.6224 627.079H25.9707L187.717 498.528Z" fill="#FEF5E2"/>
<path fill-rule="evenodd" clip-rule="evenodd" d="M197.712 526.222C200.022 531.801 202.612 537.244 205.471 542.525L154.66 626.969H109.457L197.712 526.222Z" fill="#FEF5E2"/>
<path fill-rule="evenodd" clip-rule="evenodd" d="M442.538 157.141C413.541 154.401 384.605 163.051 361.075 181.493C387.151 138.587 413.875 128.963 414.63 129.079C372.819 68.084 329.287 62.7499 306.872 71.0991C284.46 79.4481 283.273 140.675 283.273 140.675C332.627 225.905 428.207 190.073 428.207 190.073C445.054 356.498 325.769 431.527 290.649 449.857C286.201 447.374 281.632 445.112 276.956 443.082C269.905 439.972 262.667 437.421 255.302 435.445C402.979 367.751 344.373 233.326 344.373 233.326C319.733 233.773 295.397 227.422 273.685 214.877C251.975 202.332 233.61 184.012 220.345 161.663C201.271 68.7798 251.27 31.9051 251.27 31.9051C270.935 20.113 292.94 13.569 315.439 12.8224C337.938 12.0759 360.277 17.1483 380.579 27.6142C418.939 48.7188 426.699 115.976 426.699 115.976C438.983 124.904 442.538 157.141 442.538 157.141Z" fill="#FEF5E2"/>
<path fill-rule="evenodd" clip-rule="evenodd" d="M454.257 243.491C518.508 211.083 576.65 164.389 606.443 97.4151C619.419 67.8654 626.45 35.6884 627.07 3C601.127 39.7026 572.026 73.6808 540.157 104.482C518.066 126.578 494.913 147.329 470.809 166.654L469.901 167.382C469.538 167.672 469.176 167.961 468.812 168.251L450.842 181.533L453.045 187.676L453.112 188.334C455.081 207.835 455.367 226.206 454.257 243.491Z" fill="#FEF5E2"/>
<path fill-rule="evenodd" clip-rule="evenodd" d="M439.591 318.262C515.849 294.834 584.047 247.14 604.614 154.144C558.299 196.23 507.358 231.554 453.107 259.407C450.554 280.782 445.841 300.366 439.591 318.262Z" fill="#FEF5E2"/>
<path fill-rule="evenodd" clip-rule="evenodd" d="M403.628 386.482C470.506 379.769 533.196 351.365 567.153 279.238C524.475 302.386 479.663 320.27 433.558 332.641C425.152 352.869 414.835 370.762 403.628 386.482Z" fill="#FEF5E2"/>
<path fill-rule="evenodd" clip-rule="evenodd" d="M376.394 425.613C417.234 429.252 457.697 419.309 485.208 379.654C457.286 388.725 428.601 394.371 399.682 396.538C392.638 407.788 384.676 417.408 376.394 425.613Z" fill="#FEF5E2"/>
<path d="M379.885 125.111C378.8 111.408 366.872 85.4111 327.833 91.0489C350.389 91.0489 353.859 105.144 352.774 112.191C342.293 112.583 325.23 115.715 340.846 125.111C356.461 134.508 373.378 129.026 379.885 125.111Z" fill="#FEF5E2"/>
</g>
<defs>
<filter id="filter0_d_627_1505" x="0" y="0" width="638.07" height="638.079" filterUnits="userSpaceOnUse" color-interpolation-filters="sRGB">
<feFlood flood-opacity="0" result="BackgroundImageFix"/>
<feColorMatrix in="SourceAlpha" type="matrix" values="0 0 0 0 0 0 0 0 0 0 0 0 0 0 0 0 0 0 127 0" result="hardAlpha"/>
<feOffset dx="4" dy="4"/>
<feGaussianBlur stdDeviation="3.5"/>
<feComposite in2="hardAlpha" operator="out"/>
<feColorMatrix type="matrix" values="0 0 0 0 0 0 0 0 0 0 0 0 0 0 0 0 0 0 0.2 0"/>
<feBlend mode="normal" in2="BackgroundImageFix" result="effect1_dropShadow_627_1505"/>
<feBlend mode="normal" in="SourceGraphic" in2="effect1_dropShadow_627_1505" result="shape"/>
</filter>
</defs>
</svg>
