<svg width="265" height="126" viewBox="0 0 265 126" fill="none" xmlns="http://www.w3.org/2000/svg">
<path d="M238.747 105.77L230.603 83.7193L235.335 83.6772L241.159 100.184L240.112 100.1L246.437 87.2055H249.258L255.627 100.141L254.399 100.225L260.268 83.7193H265L256.947 105.77H253.716L247.074 91.7415L248.12 91.8675L241.932 105.77H238.747Z" fill="#FEF5E2"/>
<path d="M216.513 106.19C214.177 106.19 212.084 105.7 210.234 104.72C208.414 103.712 206.973 102.354 205.912 100.646C204.85 98.9097 204.319 96.9356 204.319 94.7238C204.319 92.5117 204.85 90.5516 205.912 88.8436C206.973 87.1076 208.414 85.7497 210.234 84.7695C212.084 83.7616 214.177 83.2576 216.513 83.2576C218.818 83.2576 220.881 83.7616 222.701 84.7695C224.551 85.7497 226.007 87.1076 227.069 88.8436C228.13 90.5516 228.661 92.5117 228.661 94.7238C228.661 96.9356 228.13 98.9097 227.069 100.646C226.007 102.354 224.551 103.712 222.701 104.72C220.881 105.7 218.818 106.19 216.513 106.19ZM216.513 102.242C217.939 102.242 219.212 101.92 220.335 101.276C221.457 100.604 222.337 99.7077 222.974 98.5876C223.611 97.4396 223.914 96.1518 223.884 94.7238C223.914 93.2678 223.611 91.9796 222.974 90.8596C222.337 89.7116 221.457 88.8156 220.335 88.1717C219.212 87.5275 217.939 87.2057 216.513 87.2057C215.087 87.2057 213.798 87.5416 212.645 88.2135C211.523 88.8574 210.644 89.7537 210.007 90.9017C209.37 92.0217 209.066 93.2957 209.097 94.7238C209.066 96.1518 209.37 97.4396 210.007 98.5876C210.644 99.7077 211.523 100.604 212.645 101.276C213.798 101.92 215.087 102.242 216.513 102.242Z" fill="#FEF5E2"/>
<path d="M188.447 105.77V83.7195H193.179V90.6497L192.724 88.9696C193.057 87.9055 193.619 86.9395 194.407 86.0715C195.226 85.2035 196.151 84.5175 197.183 84.0134C198.244 83.5096 199.336 83.2576 200.458 83.2576C200.974 83.2576 201.46 83.2994 201.914 83.3836C202.4 83.4675 202.779 83.5656 203.052 83.6774L201.824 88.3816C201.46 88.2415 201.05 88.1296 200.595 88.0457C200.17 87.9335 199.746 87.8776 199.321 87.8776C198.502 87.8776 197.713 88.0315 196.955 88.3395C196.227 88.6195 195.575 89.0256 194.999 89.5576C194.453 90.0617 194.013 90.6635 193.679 91.3637C193.346 92.0356 193.179 92.7775 193.179 93.5896V105.77H188.447Z" fill="#FEF5E2"/>
<path d="M172.934 106.19C170.477 106.19 168.293 105.714 166.382 104.762C164.501 103.782 163.015 102.452 161.923 100.772C160.862 99.0916 160.331 97.1595 160.331 94.9754C160.331 93.2394 160.634 91.6574 161.241 90.2294C161.847 88.8014 162.682 87.5694 163.743 86.5333C164.835 85.4695 166.124 84.6575 167.61 84.0975C169.127 83.5095 170.765 83.2153 172.524 83.2153C174.071 83.2153 175.512 83.4953 176.847 84.0554C178.181 84.5874 179.334 85.3294 180.305 86.2813C181.306 87.2335 182.064 88.3674 182.579 89.6835C183.126 90.9713 183.383 92.3855 183.353 93.9254L183.308 95.7736H163.789L162.742 92.3296H179.258L178.576 93.0436V92.0354C178.485 91.1115 178.151 90.2853 177.575 89.5575C176.998 88.8293 176.27 88.2555 175.391 87.8353C174.511 87.4155 173.556 87.2055 172.524 87.2055C170.886 87.2055 169.506 87.4994 168.384 88.0874C167.262 88.6474 166.412 89.4874 165.836 90.6074C165.26 91.6995 164.972 93.0574 164.972 94.6815C164.972 96.2214 165.32 97.5655 166.018 98.7135C166.716 99.8335 167.701 100.702 168.976 101.318C170.25 101.933 171.721 102.242 173.389 102.242C174.572 102.242 175.664 102.059 176.665 101.696C177.696 101.332 178.803 100.674 179.986 99.7217L182.352 102.788C181.624 103.46 180.729 104.048 179.668 104.552C178.636 105.056 177.529 105.462 176.346 105.77C175.194 106.05 174.056 106.19 172.934 106.19Z" fill="#FEF5E2"/>
<path d="M133.083 115.009V83.7191H137.816V88.7593L137.087 88.3812C137.269 87.5412 137.785 86.743 138.634 85.9872C139.484 85.2031 140.515 84.573 141.728 84.0972C142.972 83.5931 144.246 83.3411 145.55 83.3411C147.704 83.3411 149.615 83.831 151.283 84.8112C152.951 85.7911 154.271 87.1352 155.242 88.8432C156.212 90.5512 156.698 92.5112 156.698 94.7233C156.698 96.9072 156.212 98.8672 155.242 100.603C154.301 102.311 152.997 103.669 151.329 104.677C149.66 105.657 147.78 106.147 145.687 106.147C144.291 106.147 142.942 105.895 141.637 105.391C140.333 104.859 139.226 104.187 138.316 103.375C137.406 102.563 136.845 101.723 136.633 100.855L137.816 100.267V115.009H133.083ZM144.913 102.157C146.308 102.157 147.552 101.835 148.644 101.191C149.736 100.547 150.601 99.6651 151.238 98.5454C151.875 97.4254 152.193 96.1513 152.193 94.7233C152.193 93.2953 151.875 92.0351 151.238 90.9431C150.631 89.8231 149.782 88.9412 148.69 88.297C147.598 87.6531 146.339 87.3312 144.913 87.3312C143.488 87.3312 142.229 87.6531 141.137 88.297C140.045 88.9132 139.18 89.7812 138.543 90.9013C137.906 92.0213 137.588 93.2953 137.588 94.7233C137.588 96.1513 137.906 97.4254 138.543 98.5454C139.18 99.6651 140.045 100.547 141.137 101.191C142.229 101.835 143.488 102.157 144.913 102.157Z" fill="#FEF5E2"/>
<path d="M115.702 106.189C113.973 106.189 112.366 105.98 110.879 105.56C109.423 105.14 108.089 104.51 106.876 103.67C105.693 102.802 104.631 101.738 103.69 100.477L107.057 96.9074C108.544 98.8675 109.969 100.225 111.334 100.982C112.699 101.738 114.322 102.116 116.203 102.116C117.355 102.116 118.402 101.948 119.342 101.612C120.282 101.276 121.025 100.814 121.572 100.225C122.118 99.6374 122.391 98.9655 122.391 98.2094C122.391 97.7056 122.299 97.2295 122.118 96.7814C121.935 96.3335 121.647 95.9275 121.253 95.5636C120.889 95.1994 120.404 94.8634 119.797 94.5555C119.221 94.2475 118.538 93.9813 117.75 93.7575C116.961 93.5055 116.051 93.2956 115.02 93.1274C113.382 92.8195 111.956 92.4134 110.743 91.9094C109.53 91.4053 108.513 90.7755 107.694 90.0194C106.876 89.2633 106.269 88.4094 105.874 87.4575C105.48 86.4773 105.283 85.3853 105.283 84.1813C105.283 83.0054 105.556 81.9133 106.102 80.9052C106.678 79.8973 107.452 79.0293 108.422 78.3012C109.423 77.5453 110.591 76.9712 111.926 76.5793C113.26 76.1592 114.701 75.9492 116.248 75.9492C117.886 75.9492 119.388 76.1453 120.752 76.5372C122.118 76.9291 123.331 77.5174 124.392 78.3012C125.454 79.0573 126.334 79.9953 127.031 81.1154L123.573 84.2652C122.967 83.3413 122.284 82.5714 121.526 81.9554C120.768 81.3112 119.934 80.8354 119.024 80.5274C118.114 80.1911 117.143 80.0233 116.112 80.0233C114.929 80.0233 113.897 80.1911 113.018 80.5274C112.138 80.8633 111.44 81.3394 110.925 81.9554C110.44 82.5434 110.197 83.2433 110.197 84.0553C110.197 84.6433 110.318 85.1895 110.561 85.6933C110.804 86.1694 111.167 86.6034 111.653 86.9953C112.168 87.3595 112.851 87.6954 113.7 88.0034C114.55 88.2834 115.566 88.5354 116.749 88.7595C118.417 89.0955 119.903 89.5294 121.208 90.0615C122.512 90.5653 123.619 91.1674 124.529 91.8676C125.439 92.5674 126.121 93.3515 126.576 94.2195C127.062 95.0875 127.304 96.0256 127.304 97.0334C127.304 98.9096 126.834 100.534 125.894 101.905C124.953 103.278 123.619 104.342 121.89 105.098C120.161 105.826 118.098 106.189 115.702 106.189Z" fill="#FEF5E2"/>
<g filter="url(#filter0_d_301_208)">
<path d="M50.7651 85.9828C47.9722 84.7405 44.9886 84.0719 41.9681 84.0112C41.051 83.9927 40.1555 83.9746 39.2784 84.1179L39.1291 84.1149C39.1098 85.3294 39.1672 86.5443 39.3011 87.7504C40.0103 94.0577 42.8107 99.8768 47.1864 104.135C51.5618 108.393 57.2177 110.804 63.1117 110.923C64.0882 110.951 65.0651 110.909 66.0361 110.798C66.1101 105.485 64.691 100.271 61.9655 95.8425C59.2403 91.4137 55.3359 87.9768 50.7651 85.9828Z" fill="#FEF5E2"/>
<path d="M63.6279 94.2415C66.7361 98.5375 68.3758 103.871 68.268 109.333C68.2617 109.677 68.2567 109.975 68.2512 110.295C71.3127 109.564 74.1947 108.129 76.7038 106.089C79.213 104.048 81.2909 101.449 82.7987 98.465C84.3064 95.4808 85.2094 92.1813 85.446 88.7878C85.683 85.3939 85.2487 81.9848 84.1722 78.7886C79.7112 78.8109 75.3611 80.2994 71.6941 83.0576C68.027 85.8159 65.2147 89.7148 63.6279 94.2415Z" fill="#FEF5E2"/>
<path fill-rule="evenodd" clip-rule="evenodd" d="M60.798 50.1006C45.803 42.9307 32.0076 33.1544 19.9687 21.162C14.2411 15.6496 9.01117 9.5686 4.34863 3C4.46021 8.85019 5.72363 14.6089 8.05576 19.8973C17.4044 40.8246 42.2819 50.6878 61.4227 55.1959C61.3289 53.4819 61.0584 51.5912 60.798 50.1006Z" fill="#FEF5E2"/>
<path fill-rule="evenodd" clip-rule="evenodd" d="M61.2061 58.6929C41.7531 53.7481 23.6387 43.9229 8.32568 30.0024C13.9822 55.5894 39.5918 62.1909 59.9046 63.2347C60.5717 61.7024 60.9792 60.1734 61.2061 58.6929Z" fill="#FEF5E2"/>
<path fill-rule="evenodd" clip-rule="evenodd" d="M58.4483 65.5149C43.361 64.3544 28.6313 59.9559 15.1045 52.5715C22.4504 68.2773 37.3413 72.4271 51.9541 72.0899C54.5536 70.3008 56.3929 68.4253 57.7006 66.6244C57.9684 66.256 58.2171 65.8859 58.4483 65.5149Z" fill="#FEF5E2"/>
<path fill-rule="evenodd" clip-rule="evenodd" d="M49.3211 73.942C40.6031 73.6271 31.9749 71.8304 23.7456 68.6089C27.3869 74.4862 32.3176 77.6803 37.7595 79.1064L45.8199 75.6404C47.0891 75.0949 48.2532 74.5267 49.3211 73.942Z" fill="#FEF5E2"/>
<path fill-rule="evenodd" clip-rule="evenodd" d="M35.5404 86.9805C35.5711 87.402 35.61 87.8227 35.6571 88.2426L35.6575 88.246L35.6578 88.2493C35.7103 88.7109 35.7725 89.17 35.8444 89.627L23.5674 97.2541L20.7085 99.1149L18.6336 100.283L3 109.433V101.839L35.5404 86.9805Z" fill="#FEF5E2"/>
<path fill-rule="evenodd" clip-rule="evenodd" d="M36.1478 91.9236C36.3525 92.8135 36.5939 93.6907 36.8707 94.5532L16.75 114.992H7.12207L36.1478 91.9236Z" fill="#FEF5E2"/>
<path fill-rule="evenodd" clip-rule="evenodd" d="M37.9416 96.8933C38.3561 97.8945 38.8209 98.8712 39.3339 99.8189L30.2158 114.972H22.104L37.9416 96.8933Z" fill="#FEF5E2"/>
<path fill-rule="evenodd" clip-rule="evenodd" d="M81.8761 30.6609C76.6725 30.1692 71.4799 31.7215 67.2574 35.0309C71.9368 27.3315 76.7325 25.6043 76.8679 25.6251C69.365 14.6795 61.553 13.7222 57.5306 15.2205C53.5086 16.7188 53.2957 27.706 53.2957 27.706C62.1523 43.0007 79.3043 36.5707 79.3043 36.5707C82.3276 66.436 60.9217 79.9 54.6194 83.1894C53.8211 82.7438 53.0011 82.3379 52.162 81.9736C50.8967 81.4155 49.5979 80.9577 48.2762 80.6032C74.7771 68.4553 64.2602 44.3325 64.2602 44.3325C59.8385 44.4128 55.4713 43.2729 51.5751 41.0218C47.6792 38.7706 44.3835 35.483 42.0031 31.4725C38.5803 14.8043 47.5527 8.18708 47.5527 8.18708C51.0816 6.07097 55.0304 4.89664 59.0679 4.76267C63.1055 4.6287 67.1142 5.53895 70.7575 7.41707C77.6413 11.2044 79.0338 23.2737 79.0338 23.2737C81.2382 24.876 81.8761 30.6609 81.8761 30.6609Z" fill="#FEF5E2"/>
<path fill-rule="evenodd" clip-rule="evenodd" d="M83.979 46.1565C95.5091 40.3409 105.943 31.9616 111.289 19.943C113.618 14.6402 114.879 8.866 114.991 3C110.335 9.58635 105.113 15.6838 99.394 21.2111C95.4297 25.1764 91.275 28.9001 86.9494 32.3681L86.7863 32.4987C86.7213 32.5507 86.6563 32.6027 86.591 32.6546L83.3662 35.0381L83.7615 36.1405L83.7736 36.2585C84.1269 39.7581 84.1783 43.0548 83.979 46.1565Z" fill="#FEF5E2"/>
<path fill-rule="evenodd" clip-rule="evenodd" d="M81.3472 59.5744C95.0318 55.3703 107.27 46.8115 110.961 30.123C102.65 37.6754 93.5081 44.0145 83.7727 49.0128C83.3146 52.8485 82.4688 56.363 81.3472 59.5744Z" fill="#FEF5E2"/>
<path fill-rule="evenodd" clip-rule="evenodd" d="M74.8936 71.8167C86.8949 70.6119 98.1447 65.5149 104.238 52.5715C96.5797 56.7255 88.5381 59.9348 80.2645 62.1547C78.756 65.7847 76.9045 68.9957 74.8936 71.8167Z" fill="#FEF5E2"/>
<path fill-rule="evenodd" clip-rule="evenodd" d="M70.0062 78.8388C77.3352 79.4918 84.5962 77.7075 89.5331 70.5913C84.5225 72.2191 79.3749 73.2323 74.1854 73.6213C72.9213 75.6401 71.4925 77.3664 70.0062 78.8388Z" fill="#FEF5E2"/>
<path d="M70.6328 24.9131C70.4382 22.4541 68.2976 17.7889 61.292 18.8006C65.3397 18.8006 65.9624 21.3299 65.7678 22.5946C63.8868 22.6648 60.825 23.2269 63.6272 24.9131C66.4294 26.5993 69.4652 25.6157 70.6328 24.9131Z" fill="#FEF5E2"/>
</g>
<defs>
<filter id="filter0_d_301_208" x="0" y="0" width="125.991" height="125.992" filterUnits="userSpaceOnUse" color-interpolation-filters="sRGB">
<feFlood flood-opacity="0" result="BackgroundImageFix"/>
<feColorMatrix in="SourceAlpha" type="matrix" values="0 0 0 0 0 0 0 0 0 0 0 0 0 0 0 0 0 0 127 0" result="hardAlpha"/>
<feOffset dx="4" dy="4"/>
<feGaussianBlur stdDeviation="3.5"/>
<feComposite in2="hardAlpha" operator="out"/>
<feColorMatrix type="matrix" values="0 0 0 0 0 0 0 0 0 0 0 0 0 0 0 0 0 0 0.2 0"/>
<feBlend mode="normal" in2="BackgroundImageFix" result="effect1_dropShadow_301_208"/>
<feBlend mode="normal" in="SourceGraphic" in2="effect1_dropShadow_301_208" result="shape"/>
</filter>
</defs>
</svg>
