<svg width="577" height="339" viewBox="0 0 577 339" fill="none" xmlns="http://www.w3.org/2000/svg">
<g clip-path="url(#clip0_746_59)">
<path fill-rule="evenodd" clip-rule="evenodd" d="M297.282 1.24512C290.289 3.67775 282.762 4.50799 274.699 3.73586C274.699 10.3778 274.699 17.0198 274.699 23.6618C270.687 24.3288 267.341 23.4986 264.662 21.171C267.171 21.171 269.681 21.171 272.19 21.171C272.19 14.5291 272.19 7.8871 272.19 1.24512C280.554 1.24512 288.918 1.24512 297.282 1.24512Z" fill="#4B500B"/>
<path fill-rule="evenodd" clip-rule="evenodd" d="M297.283 1.24512C298.955 1.24512 300.628 1.24512 302.301 1.24512C304.098 6.36693 305.771 11.7635 307.32 17.4349C324.885 20.1362 340.359 27.1932 353.741 38.6062C357.505 34.8701 361.269 31.134 365.033 27.3979C368.168 25.5545 370.677 25.9695 372.56 28.6433C370.887 28.6433 370.051 29.4734 370.051 31.134C364.196 35.2853 359.178 40.2668 354.996 46.0785C351.554 43.5588 348.208 41.0681 344.958 38.6062C331.713 27.0273 316.658 22.0458 299.792 23.6618C298.243 23.386 296.988 22.5558 296.028 21.171C294.785 16.2576 294.367 11.2761 294.773 6.2266C288.918 6.2266 283.063 6.2266 277.208 6.2266C277.965 12.6012 277.129 18.4129 274.699 23.6618C274.699 17.0198 274.699 10.3778 274.699 3.73586C282.762 4.50799 290.289 3.67775 297.283 1.24512Z" fill="#C4BE23"/>
<path fill-rule="evenodd" clip-rule="evenodd" d="M264.662 21.1709C267.341 23.4984 270.686 24.3287 274.699 23.6616C253.615 27.052 234.378 35.3544 216.986 48.569C215.463 48.2612 214.627 47.431 214.477 46.0783C229.006 33.8856 245.734 25.583 264.662 21.1709Z" fill="#69770B"/>
<path fill-rule="evenodd" clip-rule="evenodd" d="M344.959 38.6065C330.396 31.427 315.341 26.4455 299.792 23.6621C316.658 22.0461 331.713 27.0276 344.959 38.6065Z" fill="#848C11"/>
<path fill-rule="evenodd" clip-rule="evenodd" d="M267.171 -1.24512C278.881 -1.24512 290.591 -1.24512 302.301 -1.24512C302.301 -0.414871 302.301 0.415377 302.301 1.24562C300.628 1.24562 298.955 1.24562 297.282 1.24562C288.918 1.24562 280.554 1.24562 272.19 1.24562C272.19 7.88761 272.19 14.5296 272.19 21.1716C269.68 21.1716 267.171 21.1716 264.662 21.1716C245.734 25.5836 229.006 33.8863 214.477 46.079C210.294 42.7581 206.112 39.4369 201.93 36.116C202.259 34.2756 201.841 32.615 200.676 31.1345C193.311 36.6814 188.293 43.3232 185.62 51.0604C186.58 49.6756 187.835 48.8454 189.384 48.5697C191.68 54.1841 195.026 59.1656 199.421 63.5141C194.092 64.8372 190.328 68.1581 188.129 73.4771C180.433 87.6823 174.997 102.627 171.819 118.31C165.964 118.31 160.109 118.31 154.254 118.31C153.47 127.132 154.306 135.435 156.764 143.218C163.186 142.467 169.041 143.297 174.328 145.709C173.181 156.958 175.69 167.751 181.856 178.088C181.856 181.409 181.856 184.73 181.856 188.051C174.914 176.541 169.895 164.087 166.801 150.69C168.163 150.541 169 149.71 169.31 148.199C163.949 144.979 158.93 144.979 154.254 148.199C153.418 148.199 152.582 148.199 151.745 148.199C151.745 137.406 151.745 126.613 151.745 115.82C157.498 116.458 162.934 115.628 168.055 113.329C170.545 94.6865 177.655 78.0815 189.384 63.5141C187.798 57.3752 184.034 53.2239 178.092 51.0604C182.051 42.0587 188.325 34.1715 196.912 27.3984C199.421 25.7378 201.93 25.7378 204.44 27.3984C205.94 32.4994 209.285 35.4054 214.477 36.116C230.036 26.7391 246.764 20.0971 264.662 16.1901C267.106 10.6041 267.943 4.79236 267.171 -1.24512Z" fill="#D6C729"/>
<path fill-rule="evenodd" clip-rule="evenodd" d="M370.051 31.1338C370.051 32.7944 370.051 34.4547 370.051 36.1153C367.227 40.1722 363.881 43.9083 360.014 47.3236C357.663 49.0465 355.99 48.6312 354.995 46.0782C359.177 40.2666 364.196 35.2851 370.051 31.1338Z" fill="#616E09"/>
<path fill-rule="evenodd" clip-rule="evenodd" d="M292.264 36.1154C290.16 36.9665 289.324 38.6271 289.754 41.0969C286.226 42.2753 284.553 44.766 284.736 48.5691C279.717 52.2454 275.535 56.812 272.19 62.2682C238.774 64.3372 238.774 65.5826 272.19 66.0043C276.381 72.4927 277.217 72.4927 274.699 66.0043C275.535 63.5136 277.208 61.853 279.717 61.0228C279.717 65.1741 279.717 69.3252 279.717 73.4765C278.881 73.4765 278.044 73.4765 277.208 73.4765C274.699 73.4765 272.19 73.4765 269.68 73.4765C259.276 70.6196 248.403 70.2047 237.06 72.2311C234.868 74.834 232.359 76.9095 229.532 78.458C231.78 72.0588 235.962 67.0773 242.079 63.5136C240.007 61.1449 239.589 58.6541 240.824 56.0413C246.261 48.9843 251.697 41.9271 257.134 34.87C267.7 31.0495 278.574 30.2191 289.754 32.3793C291.15 33.3323 291.986 34.5776 292.264 36.1154ZM272.19 66.0043C273.026 66.0043 273.863 66.0043 274.699 66.0043C277.217 72.4927 276.381 72.4927 272.19 66.0043Z" fill="#F0D138"/>
<path fill-rule="evenodd" clip-rule="evenodd" d="M292.264 36.116C295.581 35.6926 298.508 36.523 301.046 38.6068C304.734 46.6865 307.662 54.9889 309.828 63.5142C308.992 63.5142 308.155 63.5142 307.319 63.5142C304.431 56.1057 301.504 48.6335 298.537 41.0975C295.662 38.1477 292.735 38.1477 289.754 41.0975C289.324 38.6277 290.16 36.9671 292.264 36.116Z" fill="#8F9514"/>
<path fill-rule="evenodd" clip-rule="evenodd" d="M201.93 36.1153C198.585 41.0968 194.403 45.2481 189.384 48.569C187.835 48.8447 186.58 49.6749 185.62 51.0597C188.293 43.3225 193.311 36.6807 200.676 31.1338C201.841 32.6143 202.259 34.2749 201.93 36.1153Z" fill="#536008"/>
<path fill-rule="evenodd" clip-rule="evenodd" d="M307.32 63.5138C305.584 74.4324 300.565 83.5652 292.264 90.9119C287.552 85.8002 283.37 79.9885 279.718 73.4767C279.718 69.3254 279.718 65.1743 279.718 61.023C281.391 56.8717 283.063 52.7206 284.736 48.5693C288.265 47.391 289.938 44.9002 289.755 41.0971C292.736 38.1473 295.663 38.1473 298.537 41.0971C301.504 48.6331 304.432 56.1053 307.32 63.5138Z" fill="#F8D03D"/>
<path fill-rule="evenodd" clip-rule="evenodd" d="M289.755 41.0977C289.938 44.9008 288.265 47.3915 284.736 48.5699C284.553 44.7668 286.226 42.276 289.755 41.0977Z" fill="#756719"/>
<path fill-rule="evenodd" clip-rule="evenodd" d="M390.125 48.5693C392.697 49.5572 393.115 51.2175 391.379 53.5508C387.095 57.3803 383.331 61.5314 380.088 66.0045C377.516 65.0167 377.097 63.3564 378.833 61.023C383.189 57.1295 386.953 52.9782 390.125 48.5693Z" fill="#58630E"/>
<path fill-rule="evenodd" clip-rule="evenodd" d="M372.56 28.6436C378.342 35.2223 384.197 41.8644 390.125 48.5695C386.953 52.9783 383.189 57.1297 378.833 61.0232C377.098 63.3565 377.516 65.0168 380.088 66.0047C388.685 82.6109 396.213 99.216 402.671 115.819C409.092 115.068 414.949 115.899 420.236 118.31C418.562 118.31 416.891 118.31 415.217 118.31C408.739 117.128 403.72 118.789 400.162 123.292C398.613 123.016 397.358 122.186 396.398 120.801C392.209 99.6381 384.262 80.1274 372.56 62.2686C375.384 57.3802 378.73 52.8137 382.597 48.5695C379.198 43.5352 375.016 39.3839 370.051 36.1158C370.051 34.4552 370.051 32.7949 370.051 31.1343C370.051 29.4737 370.887 28.6436 372.56 28.6436Z" fill="#D2C329"/>
<path fill-rule="evenodd" clip-rule="evenodd" d="M284.736 48.5693C283.063 52.7207 281.39 56.8717 279.717 61.023C277.208 61.8532 275.535 63.5138 274.699 66.0045C273.862 66.0045 273.026 66.0045 272.189 66.0045C238.774 65.5828 238.774 64.3375 272.189 62.2684C275.535 56.8122 279.717 52.2457 284.736 48.5693Z" fill="#5E5B12"/>
<path fill-rule="evenodd" clip-rule="evenodd" d="M367.542 66.0046C366.764 62.9203 365.51 62.9203 363.778 66.0046C353.741 80.949 343.704 95.8935 333.667 110.838C331.932 113.171 332.35 114.832 334.922 115.819C334.922 116.65 334.922 117.48 334.922 118.31C333.249 118.31 331.576 118.31 329.903 118.31C329.903 116.65 329.067 115.819 327.394 115.819C326.558 114.159 325.721 112.499 324.885 110.838C331.969 107.121 336.151 101.309 337.431 93.4027C346.66 83.0291 355.025 71.8207 362.524 59.7777C368.85 58.9575 370.523 61.0333 367.542 66.0046Z" fill="#C8C91C"/>
<path fill-rule="evenodd" clip-rule="evenodd" d="M269.681 73.4766C266.152 74.655 264.479 77.1457 264.662 80.9488C259.644 84.6251 255.462 89.1917 252.116 94.6479C242.953 95.8898 233.752 96.305 224.514 95.8933C223.678 95.8933 222.841 95.8933 222.005 95.8933C219.311 94.0237 218.893 91.533 220.75 88.421C223.131 84.453 226.058 81.1321 229.533 78.4581C232.359 76.9096 234.869 74.834 237.06 72.2312C248.403 70.2048 259.277 70.6197 269.681 73.4766Z" fill="#F7CE3C"/>
<path fill-rule="evenodd" clip-rule="evenodd" d="M199.421 63.5137C186.331 81.2291 178.803 101.155 176.838 123.291C170.147 123.291 163.455 123.291 156.764 123.291C156.764 129.934 156.764 136.575 156.764 143.217C154.306 135.434 153.47 127.132 154.255 118.31C160.11 118.31 165.965 118.31 171.819 118.31C174.997 102.626 180.434 87.6818 188.13 73.4766C190.329 68.1577 194.092 64.8368 199.421 63.5137Z" fill="#5F6B0C"/>
<path fill-rule="evenodd" clip-rule="evenodd" d="M357.504 58.5323C345.885 71.7715 335.012 85.8858 324.884 100.875C322.463 97.8334 322.881 94.5125 326.138 90.9119C334.726 78.0158 343.927 65.5621 353.74 53.5508C355.54 54.9062 356.795 56.5668 357.504 58.5323Z" fill="#C8CB1C"/>
<path fill-rule="evenodd" clip-rule="evenodd" d="M367.542 66.0046C367.542 67.6652 367.542 69.3255 367.542 70.9861C365.869 70.9861 365.033 71.8163 365.033 73.4768C362.93 74.3279 362.093 75.9885 362.524 78.4583C360.851 78.4583 360.014 79.2885 360.014 80.9491C357.911 81.8002 357.074 83.4607 357.505 85.9305C355.832 85.9305 354.996 86.7607 354.996 88.4213C352.893 89.2724 352.056 90.933 352.487 93.4028C350.814 93.4028 349.977 94.2329 349.977 95.8935C347.874 96.7446 347.037 98.4052 347.468 100.875C345.795 100.875 344.959 101.705 344.959 103.366C342.856 104.217 342.019 105.877 342.45 108.347C340.777 108.347 339.94 109.177 339.94 110.838C337.837 111.689 337 113.35 337.431 115.819C336.595 115.819 335.758 115.819 334.922 115.819C332.35 114.832 331.931 113.171 333.667 110.838C343.704 95.8935 353.741 80.9491 363.778 66.0046C365.51 62.9203 366.764 62.9203 367.542 66.0046Z" fill="#7E8F0A"/>
<path fill-rule="evenodd" clip-rule="evenodd" d="M269.681 73.4766C269.864 77.2797 268.191 79.7704 264.662 80.9488C264.479 77.1457 266.152 74.6549 269.681 73.4766Z" fill="#655817"/>
<path fill-rule="evenodd" clip-rule="evenodd" d="M307.319 63.5137C308.156 63.5137 308.992 63.5137 309.828 63.5137C312.621 67.1163 313.039 71.2676 311.083 75.9674C307.738 80.9489 304.392 85.9303 301.046 90.9118C298.999 94.2066 296.071 95.8669 292.264 95.8933C292.264 94.2327 292.264 92.5724 292.264 90.9118C300.565 83.5651 305.584 74.4323 307.319 63.5137Z" fill="#56600F"/>
<path fill-rule="evenodd" clip-rule="evenodd" d="M277.208 73.4766C278.044 73.4766 278.881 73.4766 279.717 73.4766C283.369 79.9884 287.551 85.8 292.264 90.9117C292.264 92.5723 292.264 94.2327 292.264 95.8932C290.591 95.8932 289.754 96.7234 289.754 98.384C288.081 100.875 286.409 103.365 284.736 105.856C284.8 94.4352 282.291 83.642 277.208 73.4766Z" fill="#A59721"/>
<path fill-rule="evenodd" clip-rule="evenodd" d="M357.505 58.5322C350.814 70.1558 344.123 81.7791 337.431 93.4026C334.077 95.4323 331.568 98.338 329.903 102.12C327.553 103.843 325.88 103.428 324.885 100.875C335.013 85.8858 345.886 71.7715 357.505 58.5322Z" fill="#86970A"/>
<path fill-rule="evenodd" clip-rule="evenodd" d="M380.088 66.0049C392.977 79.9874 400.505 96.5924 402.671 115.82C396.213 99.2162 388.685 82.6111 380.088 66.0049Z" fill="#868915"/>
<path fill-rule="evenodd" clip-rule="evenodd" d="M269.68 73.4766C272.19 73.4766 274.699 73.4766 277.208 73.4766C282.291 83.642 284.8 94.4352 284.736 105.856C280.667 113.496 275.649 120.553 269.68 127.027C271.172 128.184 272.845 128.599 274.699 128.273C273.841 130.361 272.168 131.191 269.68 130.764C268.007 129.103 266.335 127.443 264.662 125.782C265.499 118.332 262.99 112.521 257.134 108.347C256.277 106.259 254.604 105.429 252.115 105.856C252.115 105.026 252.115 104.196 252.115 103.365C251.279 103.365 250.443 103.365 249.606 103.365C238.226 100.267 226.516 100.267 214.477 103.365C216.5 100.307 219.01 97.8158 222.004 95.8932C222.841 95.8932 223.677 95.8932 224.514 95.8932C234.077 98.7459 244.114 99.1608 254.625 97.1386C258.97 92.2271 262.316 86.8304 264.662 80.9488C268.191 79.7704 269.863 77.2797 269.68 73.4766Z" fill="#F0C939"/>
<path fill-rule="evenodd" clip-rule="evenodd" d="M264.662 80.9492C262.316 86.8309 258.97 92.2275 254.625 97.139C244.114 99.1613 234.077 98.7463 224.514 95.8937C233.752 96.3054 242.953 95.8902 252.116 94.6483C255.461 89.1921 259.643 84.6256 264.662 80.9492Z" fill="#4D4712"/>
<path fill-rule="evenodd" clip-rule="evenodd" d="M382.597 88.4215C380.236 92.2809 378.563 96.4322 377.579 100.875C375.906 100.875 375.069 101.705 375.069 103.366C372.966 104.217 372.129 105.878 372.56 108.347C369.031 109.526 367.358 112.017 367.541 115.82C364.013 116.998 362.34 119.489 362.523 123.292C359.177 124.952 356.668 127.443 354.995 130.764C352.575 127.723 352.993 124.402 356.25 120.801C362.941 110.838 369.632 100.875 376.324 90.9122C378.007 89.0382 380.098 88.2078 382.597 88.4215Z" fill="#899A0B"/>
<path fill-rule="evenodd" clip-rule="evenodd" d="M249.607 103.366C246.845 106.118 245.173 109.439 244.588 113.329C239.57 117.005 235.388 121.572 232.042 127.028C221.672 126.795 212.471 128.87 204.44 133.255C203.604 133.255 202.767 133.255 201.931 133.255C200.355 121.378 204.537 111.415 214.477 103.366C226.517 100.267 238.227 100.267 249.607 103.366Z" fill="#F5C93B"/>
<path fill-rule="evenodd" clip-rule="evenodd" d="M322.375 105.856C323.658 113.809 325.33 121.696 327.393 129.519C326.901 134.197 326.065 138.763 324.884 143.218C321.355 144.396 319.682 146.887 319.866 150.69C317.401 152.286 314.892 153.946 312.338 155.671C309.784 153.946 307.275 152.286 304.81 150.69C301.218 147.501 299.546 143.349 299.791 138.236C297.282 138.236 294.773 138.236 292.264 138.236C296.703 123.477 304.649 111.023 316.102 100.875C319.366 101.22 321.457 102.881 322.375 105.856Z" fill="#EEC438"/>
<path fill-rule="evenodd" clip-rule="evenodd" d="M249.606 103.366C250.443 103.366 251.279 103.366 252.116 103.366C252.116 104.196 252.116 105.027 252.116 105.857C250.443 109.178 247.933 111.669 244.588 113.329C245.172 109.439 246.845 106.118 249.606 103.366Z" fill="#514B12"/>
<path fill-rule="evenodd" clip-rule="evenodd" d="M252.116 105.856C254.604 105.429 256.277 106.259 257.135 108.347C258.226 114.965 260.735 120.777 264.662 125.782C264.662 128.273 264.662 130.763 264.662 133.254C255.054 131.837 246.689 133.497 239.57 138.236C238.733 138.236 237.897 138.236 237.061 138.236C237.061 136.575 236.224 135.745 234.551 135.745C234.551 134.084 233.715 133.254 232.042 133.254C237.508 127.38 241.69 120.738 244.588 113.328C247.934 111.668 250.443 109.177 252.116 105.856Z" fill="#F6C73C"/>
<path fill-rule="evenodd" clip-rule="evenodd" d="M372.561 78.4587C362.929 95.9335 352.056 112.539 339.94 128.274C337.368 127.286 336.95 125.625 338.686 123.292C348.723 108.348 358.76 93.4032 368.797 78.4587C370.528 75.3744 371.783 75.3744 372.561 78.4587Z" fill="#7F900A"/>
<path fill-rule="evenodd" clip-rule="evenodd" d="M322.375 105.856C324.478 106.708 325.315 108.368 324.884 110.838C325.721 112.499 326.557 114.159 327.394 115.819C329.066 115.819 329.903 116.65 329.903 118.31C329.903 120.801 329.903 123.292 329.903 125.782C329.903 127.443 330.739 128.273 332.412 128.273C332.412 129.934 332.412 131.594 332.412 133.255C331.816 137.998 329.307 141.319 324.884 143.218C326.065 138.763 326.901 134.197 327.394 129.518C325.33 121.696 323.658 113.809 322.375 105.856Z" fill="#736E16"/>
<path fill-rule="evenodd" clip-rule="evenodd" d="M257.134 108.348C262.99 112.521 265.499 118.333 264.662 125.783C260.734 120.778 258.225 114.966 257.134 108.348Z" fill="#7E7718"/>
<path fill-rule="evenodd" clip-rule="evenodd" d="M289.755 98.3838C292.511 101.126 292.929 104.447 291.009 108.347C285.914 115.459 280.477 122.101 274.699 128.273C272.845 128.599 271.172 128.184 269.681 127.027C275.649 120.553 280.667 113.496 284.736 105.856C286.409 103.365 288.082 100.875 289.755 98.3838Z" fill="#50590E"/>
<path fill-rule="evenodd" clip-rule="evenodd" d="M244.588 113.329C241.689 120.739 237.507 127.381 232.041 133.255C231.205 133.255 230.368 133.255 229.532 133.255C225.35 133.255 221.168 133.255 216.986 133.255C215.313 133.255 213.64 133.255 211.967 133.255C209.458 133.255 206.949 133.255 204.439 133.255C212.471 128.871 221.671 126.795 232.041 127.028C235.387 121.572 239.569 117.005 244.588 113.329Z" fill="#585612"/>
<path fill-rule="evenodd" clip-rule="evenodd" d="M365.033 130.764C363.503 128.544 362.666 126.054 362.523 123.291C366.052 122.113 367.725 119.622 367.542 115.819C371.071 114.641 372.744 112.15 372.56 108.347C374.664 107.496 375.5 105.835 375.07 103.365C376.743 103.365 377.579 102.535 377.579 100.875C381.919 97.1992 385.265 98.0293 387.616 103.365C382.588 114.954 375.061 124.087 365.033 130.764Z" fill="#B4C112"/>
<path fill-rule="evenodd" clip-rule="evenodd" d="M415.218 118.31C415.649 120.78 414.811 122.44 412.708 123.292C408.525 123.292 404.345 123.292 400.162 123.292C403.72 118.789 408.739 117.128 415.218 118.31Z" fill="#7A7F11"/>
<path fill-rule="evenodd" clip-rule="evenodd" d="M420.236 118.311C421.071 118.311 421.909 118.311 422.745 118.311C422.745 128.274 422.745 138.236 422.745 148.199C420.256 148.627 418.585 147.796 417.727 145.709C420.191 137.086 421.026 127.953 420.236 118.311Z" fill="#434E06"/>
<path fill-rule="evenodd" clip-rule="evenodd" d="M367.541 70.9863C373.943 71.4053 375.616 73.896 372.56 78.4586C371.782 75.3743 370.527 75.3743 368.796 78.4586C358.759 93.403 348.722 108.347 338.685 123.292C336.949 125.625 337.367 127.286 339.939 128.273C342.702 131.009 346.048 131.424 349.976 129.519C347.591 127.732 347.173 125.656 348.722 123.292C357.726 109.568 367.344 96.2845 377.578 83.44C380.143 84.3255 381.816 85.9861 382.597 88.4215C380.098 88.2078 378.007 89.0382 376.324 90.9123C369.632 100.875 362.941 110.838 356.25 120.801C352.993 124.402 352.575 127.723 354.995 130.764C358.341 130.764 361.686 130.764 365.032 130.764C365.032 131.594 365.032 132.425 365.032 133.255C354.995 133.255 344.958 133.255 334.921 133.255C335.351 130.785 334.515 129.124 332.412 128.273C330.739 128.273 329.902 127.443 329.902 125.783C332.164 123.814 333.837 121.323 334.921 118.31C336.594 118.31 337.43 117.48 337.43 115.82C339.533 114.969 340.37 113.308 339.939 110.838C341.612 110.838 342.449 110.008 342.449 108.347C344.552 107.496 345.388 105.836 344.958 103.366C346.631 103.366 347.467 102.536 347.467 100.875C349.57 100.024 350.407 98.3636 349.976 95.8937C351.649 95.8937 352.486 95.0636 352.486 93.403C354.589 92.5519 355.426 90.8913 354.995 88.4215C356.668 88.4215 357.504 87.5914 357.504 85.9308C359.607 85.0797 360.444 83.4191 360.013 80.9493C361.686 80.9493 362.523 80.1191 362.523 78.4586C364.626 77.6075 365.463 75.9469 365.032 73.4771C366.705 73.4771 367.541 72.6469 367.541 70.9863Z" fill="#C6C91A"/>
<path fill-rule="evenodd" clip-rule="evenodd" d="M264.662 133.255C265.055 136.676 264.637 139.997 263.407 143.218C258.189 149.607 253.589 156.249 249.606 163.144C248.77 163.144 247.933 163.144 247.097 163.144C247.097 161.483 246.261 160.653 244.588 160.653C242.746 157.645 241.909 154.323 242.079 150.69C242.674 147.475 241.838 144.984 239.569 143.218C239.569 141.557 239.569 139.897 239.569 138.237C246.689 133.498 255.053 131.838 264.662 133.255Z" fill="#F2C039"/>
<path fill-rule="evenodd" clip-rule="evenodd" d="M332.412 133.255C333.249 133.255 334.085 133.255 334.922 133.255C344.959 133.255 354.996 133.255 365.033 133.255C366.706 133.255 367.542 134.085 367.542 135.746C365.033 136.576 363.36 138.236 362.524 140.727C358.056 148.085 353.037 155.142 347.468 161.898C338.267 162.729 329.067 163.559 319.866 164.389C328.352 164.829 336.716 166.074 344.959 168.125C344.649 169.636 343.812 170.467 342.449 170.616C331.829 167.392 320.955 167.392 309.829 170.616C309.829 167.295 309.829 163.974 309.829 160.653C310.665 160.653 311.502 160.653 312.338 160.653C312.338 159.823 312.338 158.992 312.338 158.162C317.357 158.162 319.866 155.672 319.866 150.69C323.395 149.512 325.068 147.021 324.885 143.218C329.307 141.319 331.816 137.998 332.412 133.255ZM312.338 160.653C314.318 161.357 315.991 162.603 317.357 164.389C314.055 165.705 312.382 164.459 312.338 160.653Z" fill="#F1BF3A"/>
<path fill-rule="evenodd" clip-rule="evenodd" d="M292.264 138.236C294.773 138.236 297.282 138.236 299.792 138.236C299.546 143.35 301.219 147.501 304.81 150.69C307.84 159.04 307.84 167.343 304.81 175.597C301.281 176.776 299.609 179.267 299.792 183.07C296.544 185.037 293.617 187.528 291.009 190.542C288.528 182.895 284.765 177.914 279.718 175.597C277.614 174.746 276.778 173.086 277.208 170.616C280.554 169.786 280.554 168.955 277.208 168.125C276.93 155.394 281.948 145.431 292.264 138.236Z" fill="#F5C03A"/>
<path fill-rule="evenodd" clip-rule="evenodd" d="M367.542 135.745C369.978 139.387 369.142 142.708 365.033 145.708C365.463 143.238 364.627 141.578 362.523 140.727C363.36 138.236 365.033 136.575 367.542 135.745Z" fill="#676F11"/>
<path fill-rule="evenodd" clip-rule="evenodd" d="M264.662 125.782C266.335 127.443 268.008 129.103 269.681 130.764C270.188 136.964 268.933 142.775 265.917 148.199C262.39 155.443 256.953 160.425 249.606 163.143C253.589 156.248 258.189 149.607 263.407 143.217C264.637 139.996 265.055 136.675 264.662 133.254C264.662 130.764 264.662 128.273 264.662 125.782Z" fill="#4F570F"/>
<path fill-rule="evenodd" clip-rule="evenodd" d="M324.885 143.218C325.068 147.021 323.395 149.512 319.866 150.69C319.683 146.887 321.356 144.396 324.885 143.218Z" fill="#44400F"/>
<path fill-rule="evenodd" clip-rule="evenodd" d="M166.801 150.69C161.997 151.399 157.815 150.568 154.255 148.199C158.931 144.979 163.949 144.979 169.31 148.199C169 149.71 168.164 150.54 166.801 150.69Z" fill="#797E11"/>
<path fill-rule="evenodd" clip-rule="evenodd" d="M211.968 133.255C213.64 133.255 215.313 133.255 216.986 133.255C216.986 134.085 216.986 134.915 216.986 135.746C206.498 149.928 197.297 164.873 189.384 180.579C188.548 180.579 187.711 180.579 186.875 180.579C186.875 178.918 186.039 178.088 184.366 178.088C183.529 178.088 182.693 178.088 181.856 178.088C181.856 177.258 181.856 176.428 181.856 175.597C186.279 173.699 188.788 170.378 189.384 165.635C192.913 164.456 194.586 161.965 194.403 158.162C200.229 154.919 203.574 149.938 204.44 143.218C208.862 141.319 211.371 137.998 211.968 133.255Z" fill="#C8C71B"/>
<path fill-rule="evenodd" clip-rule="evenodd" d="M415.218 118.311C416.892 118.311 418.563 118.311 420.236 118.311C421.027 127.953 420.191 137.086 417.727 145.709C411.873 145.709 406.016 145.709 400.162 145.709C396.572 167.207 389.044 187.132 377.579 205.486C377.579 206.317 377.579 207.147 377.579 207.977C374.582 207.067 372.909 204.991 372.561 201.75C385.257 184.294 392.785 164.783 395.144 143.218C400.999 143.218 406.855 143.218 412.709 143.218C412.709 136.576 412.709 129.934 412.709 123.292C414.811 122.441 415.65 120.78 415.218 118.311Z" fill="#D8BF2B"/>
<path fill-rule="evenodd" clip-rule="evenodd" d="M201.931 133.255C203.773 136.263 204.609 139.585 204.44 143.218C199.857 147.321 196.512 152.303 194.403 158.162C190.874 159.341 189.201 161.831 189.385 165.635C182.92 165.082 180.828 161.761 183.111 155.672C188.282 146.925 194.556 139.453 201.931 133.255Z" fill="#A9B80F"/>
<path fill-rule="evenodd" clip-rule="evenodd" d="M239.57 143.218C241.838 144.984 242.674 147.474 242.079 150.69C241.242 150.69 240.406 150.69 239.57 150.69C226.13 167.373 213.584 184.809 201.931 202.996C200.258 204.656 198.585 206.316 196.912 207.977C196.912 206.316 196.912 204.656 196.912 202.996C196.912 202.165 196.912 201.335 196.912 200.505C199.174 198.536 200.846 196.045 201.931 193.033C204.034 192.182 204.87 190.521 204.44 188.051C206.113 188.051 206.949 187.221 206.949 185.56C209.052 184.709 209.889 183.049 209.458 180.579C211.131 180.579 211.968 179.749 211.968 178.088C214.071 177.237 214.908 175.576 214.477 173.107C216.15 173.107 216.986 172.276 216.986 170.616C219.089 169.765 219.926 168.104 219.495 165.634C221.168 165.634 222.005 164.804 222.005 163.144C224.108 162.293 224.945 160.632 224.514 158.162C226.187 158.162 227.023 157.332 227.023 155.671C229.126 154.82 229.963 153.16 229.532 150.69C231.205 150.69 232.042 149.86 232.042 148.199C234.293 145.464 236.384 145.464 238.315 148.199C239.48 146.719 239.898 145.058 239.57 143.218Z" fill="#C9C51D"/>
<path fill-rule="evenodd" clip-rule="evenodd" d="M304.811 150.689C307.275 152.286 309.784 153.946 312.338 155.671C314.892 153.946 317.402 152.286 319.866 150.689C319.866 155.671 317.357 158.162 312.338 158.162C310.665 158.162 309.829 158.992 309.829 160.652C309.829 163.973 309.829 167.294 309.829 170.615C308.993 173.106 307.32 174.767 304.811 175.597C307.84 167.342 307.84 159.04 304.811 150.689Z" fill="#666015"/>
<path fill-rule="evenodd" clip-rule="evenodd" d="M216.986 135.745C219.406 138.787 218.988 142.107 215.731 145.708C208.728 158.839 199.946 170.462 189.384 180.578C197.297 164.872 206.497 149.928 216.986 135.745Z" fill="#88990B"/>
<path fill-rule="evenodd" clip-rule="evenodd" d="M362.523 140.727C364.626 141.578 365.463 143.238 365.032 145.708C353.149 159.998 343.53 175.773 336.176 193.032C334.128 196.327 331.201 197.987 327.393 198.014C316.85 198.803 306.813 197.972 297.282 195.523C307.354 195.935 317.391 195.52 327.393 194.277C334.033 187.299 339.052 179.412 342.449 170.615C343.812 170.466 344.648 169.636 344.958 168.125C336.716 166.073 328.351 164.828 319.866 164.389C329.066 163.558 338.267 162.728 347.467 161.898C353.037 155.141 358.055 148.084 362.523 140.727Z" fill="#52580F"/>
<path fill-rule="evenodd" clip-rule="evenodd" d="M229.532 133.255C230.369 133.255 231.205 133.255 232.042 133.255C233.715 133.255 234.551 134.085 234.551 135.746C234.551 136.576 234.551 137.406 234.551 138.236C221.112 154.92 208.566 172.355 196.912 190.542C194.218 188.672 193.8 186.182 195.657 183.07C207.505 166.761 218.797 150.156 229.532 133.255Z" fill="#CAC51E"/>
<path fill-rule="evenodd" clip-rule="evenodd" d="M342.449 170.616C339.052 179.413 334.034 187.3 327.394 194.278C317.391 195.52 307.354 195.936 297.283 195.523C297.283 193.863 296.446 193.033 294.773 193.033C297.535 190.281 299.208 186.96 299.792 183.07C303.321 181.891 304.994 179.401 304.81 175.598C307.32 174.767 308.993 173.107 309.829 170.616C320.955 167.392 331.828 167.392 342.449 170.616Z" fill="#F6B93C"/>
<path fill-rule="evenodd" clip-rule="evenodd" d="M174.329 145.708C178.071 155.083 180.58 165.046 181.856 175.597C181.856 176.427 181.856 177.257 181.856 178.088C175.691 167.751 173.181 156.957 174.329 145.708Z" fill="#828812"/>
<path fill-rule="evenodd" clip-rule="evenodd" d="M239.57 150.689C235.387 158.992 231.205 167.294 227.023 175.597C220.875 180.9 216.693 187.542 214.477 195.523C210.348 197.96 207.003 201.281 204.44 205.486C202.918 205.178 202.081 204.348 201.931 202.995C213.584 184.808 226.13 167.373 239.57 150.689Z" fill="#7E8F0A"/>
<path fill-rule="evenodd" clip-rule="evenodd" d="M277.209 168.125C277.209 168.955 277.209 169.786 277.209 170.616C276.778 173.086 277.615 174.746 279.718 175.597C280.367 182.501 282.876 188.313 287.246 193.032C287.203 198.175 286.366 203.157 284.737 207.977C281.208 209.155 279.535 211.646 279.718 215.449C276.189 216.627 274.516 219.118 274.7 222.921C272.211 222.494 270.538 223.324 269.681 225.412C255.472 209.72 254.217 193.115 265.917 175.597C268.75 171.509 272.514 169.019 277.209 168.125Z" fill="#F3BC39"/>
<path fill-rule="evenodd" clip-rule="evenodd" d="M417.727 145.708C418.585 147.796 420.257 148.626 422.746 148.199C422.746 149.029 422.746 149.859 422.746 150.689C416.054 150.689 409.364 150.689 402.672 150.689C400.661 171.275 393.133 189.54 380.088 205.486C379.252 205.486 378.415 205.486 377.579 205.486C389.044 187.132 396.572 167.206 400.162 145.708C406.017 145.708 411.873 145.708 417.727 145.708Z" fill="#616A0D"/>
<path fill-rule="evenodd" clip-rule="evenodd" d="M234.551 138.236C235.387 138.236 236.224 138.236 237.06 138.236C237.897 138.236 238.733 138.236 239.57 138.236C239.57 139.897 239.57 141.557 239.57 143.218C234.883 140.295 232.373 141.955 232.042 148.199C230.369 148.199 229.532 149.029 229.532 150.69C227.429 151.541 226.593 153.202 227.023 155.672C225.35 155.672 224.514 156.502 224.514 158.162C222.411 159.013 221.574 160.674 222.005 163.144C220.332 163.144 219.495 163.974 219.495 165.634C217.392 166.486 216.556 168.146 216.986 170.616C215.313 170.616 214.477 171.446 214.477 173.107C212.374 173.958 211.537 175.618 211.968 178.088C210.295 178.088 209.458 178.918 209.458 180.579C207.355 181.43 206.519 183.091 206.949 185.56C205.276 185.56 204.44 186.391 204.44 188.051C202.337 188.902 201.5 190.563 201.931 193.033C199.442 193.46 197.77 192.63 196.912 190.542C208.566 172.355 221.112 154.92 234.551 138.236Z" fill="#80900A"/>
<path fill-rule="evenodd" clip-rule="evenodd" d="M304.81 175.598C304.994 179.401 303.321 181.892 299.792 183.07C299.609 179.267 301.282 176.776 304.81 175.598Z" fill="#5D4D16"/>
<path fill-rule="evenodd" clip-rule="evenodd" d="M244.588 168.125C236.37 183.643 226.333 197.757 214.477 210.467C222.163 194.397 231.782 179.453 243.333 165.634C244.334 166.203 244.752 167.033 244.588 168.125Z" fill="#86980A"/>
<path fill-rule="evenodd" clip-rule="evenodd" d="M299.792 183.07C299.207 186.96 297.535 190.281 294.773 193.033C293.937 193.033 293.1 193.033 292.264 193.033C291.428 193.033 290.591 193.033 289.755 193.033C288.918 193.033 288.082 193.033 287.246 193.033C282.876 188.313 280.367 182.501 279.718 175.598C284.765 177.914 288.529 182.896 291.009 190.542C293.617 187.528 296.544 185.037 299.792 183.07Z" fill="#91811E"/>
<path fill-rule="evenodd" clip-rule="evenodd" d="M292.264 193.032C293.1 193.032 293.937 193.032 294.773 193.032C296.446 193.032 297.283 193.862 297.283 195.523C306.814 197.972 316.851 198.803 327.394 198.014C328.108 202.783 327.271 206.934 324.885 210.467C325.48 207.252 324.644 204.761 322.375 202.995C311.754 199.771 300.881 199.771 289.755 202.995C289.755 200.504 289.755 198.014 289.755 195.523C291.428 195.523 292.264 194.693 292.264 193.032Z" fill="#BBAD22"/>
<path fill-rule="evenodd" clip-rule="evenodd" d="M244.588 160.652C246.261 160.652 247.097 161.483 247.097 163.143C247.527 165.613 246.691 167.273 244.588 168.125C244.752 167.033 244.334 166.203 243.333 165.634C231.782 179.453 222.163 194.397 214.477 210.467C212.023 209.693 210.35 208.032 209.458 205.486C212.294 202.69 213.967 199.369 214.477 195.523C220.624 190.22 224.806 183.578 227.023 175.597C231.836 169.305 237.691 164.324 244.588 160.652Z" fill="#C4C41B"/>
<path fill-rule="evenodd" clip-rule="evenodd" d="M287.246 193.032C288.082 193.032 288.919 193.032 289.755 193.032C289.755 193.862 289.755 194.693 289.755 195.523C289.755 198.014 289.755 200.504 289.755 202.995C288.919 205.486 287.246 207.147 284.736 207.977C286.366 203.157 287.202 198.175 287.246 193.032Z" fill="#423E11"/>
<path fill-rule="evenodd" clip-rule="evenodd" d="M322.375 202.995C318.312 213.64 311.621 221.943 302.301 227.902C293.414 227.123 285.049 227.954 277.208 230.393C275.536 230.393 274.699 229.563 274.699 227.902C274.699 226.242 274.699 224.581 274.699 222.921C278.228 221.743 279.901 219.252 279.718 215.449C283.247 214.27 284.919 211.78 284.736 207.976C287.246 207.146 288.918 205.486 289.755 202.995C300.881 199.771 311.754 199.771 322.375 202.995Z" fill="#F6B53C"/>
<path fill-rule="evenodd" clip-rule="evenodd" d="M196.912 202.995C196.912 204.656 196.912 206.316 196.912 207.977C195.239 211.298 192.729 213.788 189.384 215.449C185.356 219.107 184.101 218.277 185.62 212.958C189.061 209.119 192.825 205.798 196.912 202.995Z" fill="#556109"/>
<path fill-rule="evenodd" clip-rule="evenodd" d="M284.736 207.977C284.919 211.78 283.246 214.27 279.718 215.449C279.534 211.646 281.207 209.155 284.736 207.977Z" fill="#6E5C1A"/>
<path fill-rule="evenodd" clip-rule="evenodd" d="M279.718 215.449C279.901 219.252 278.228 221.743 274.699 222.921C274.516 219.118 276.189 216.628 279.718 215.449Z" fill="#6E591A"/>
<path fill-rule="evenodd" clip-rule="evenodd" d="M322.375 202.995C324.643 204.761 325.48 207.252 324.884 210.467C320.752 217.874 315.733 224.515 309.829 230.393C306.589 230.984 304.08 230.154 302.301 227.903C311.621 221.943 318.312 213.641 322.375 202.995Z" fill="#444C0E"/>
<path fill-rule="evenodd" clip-rule="evenodd" d="M274.699 222.921C274.699 224.582 274.699 226.242 274.699 227.903C272.211 228.33 270.538 227.5 269.681 225.412C270.538 223.324 272.211 222.494 274.699 222.921Z" fill="#646A11"/>
<path fill-rule="evenodd" clip-rule="evenodd" d="M392.634 215.449C387.791 224.416 381.099 231.889 372.56 237.866C371.46 238.029 370.624 237.614 370.051 236.621C377.368 228.931 384.896 221.874 392.634 215.449Z" fill="#5D6C0D"/>
<path fill-rule="evenodd" clip-rule="evenodd" d="M216.986 227.903C212.061 231.539 207.46 235.69 203.185 240.357C202.184 239.788 201.766 238.957 201.93 237.866C204.754 233.809 208.099 230.073 211.967 226.657C214.318 224.935 215.991 225.35 216.986 227.903Z" fill="#5B690C"/>
<path fill-rule="evenodd" clip-rule="evenodd" d="M181.856 178.088C182.693 178.088 183.529 178.088 184.366 178.088C186.039 178.088 186.875 178.918 186.875 180.579C188.903 187.927 192.249 194.569 196.912 200.505C196.912 201.335 196.912 202.165 196.912 202.995C192.825 205.798 189.061 209.119 185.62 212.958C184.101 218.277 185.356 219.107 189.384 215.449C191.576 221.393 195.339 226.374 200.676 230.393C204.858 226.242 209.04 222.091 213.222 217.94C221.201 223.325 229.147 228.307 237.06 232.884C237.06 233.714 237.06 234.545 237.06 235.375C234.572 234.948 232.899 235.778 232.042 237.866C226.282 235.438 221.264 232.117 216.986 227.903C215.991 225.35 214.318 224.934 211.968 226.657C208.1 230.073 204.754 233.809 201.93 237.866C193.552 230.378 185.188 222.905 176.838 215.449C181.02 210.468 185.202 205.486 189.384 200.505C186.215 196.697 183.706 192.546 181.856 188.051C181.856 184.73 181.856 181.409 181.856 178.088Z" fill="#C4AA27"/>
<path fill-rule="evenodd" clip-rule="evenodd" d="M302.301 227.903C304.08 230.155 306.589 230.985 309.828 230.394C298.955 233.715 288.081 233.715 277.208 230.394C285.049 227.954 293.413 227.124 302.301 227.903Z" fill="#717212"/>
<path fill-rule="evenodd" clip-rule="evenodd" d="M357.505 227.903C344.322 238.594 329.266 245.236 312.338 247.829C312.338 246.999 312.338 246.168 312.338 245.338C327.289 240.831 341.508 234.188 354.995 225.412C356.518 225.72 357.354 226.55 357.505 227.903Z" fill="#68760B"/>
<path fill-rule="evenodd" clip-rule="evenodd" d="M232.042 237.865C232.899 235.778 234.572 234.947 237.061 235.375C246.195 240.76 256.232 244.496 267.172 246.583C264.793 247.785 262.284 248.201 259.644 247.828C249.692 246.474 240.492 243.153 232.042 237.865Z" fill="#797C13"/>
<path fill-rule="evenodd" clip-rule="evenodd" d="M377.579 205.486C378.415 205.486 379.252 205.486 380.088 205.486C385.744 207.04 389.926 210.361 392.635 215.449C384.896 221.874 377.369 228.931 370.051 236.621C370.624 237.614 371.461 238.029 372.561 237.866C371.565 240.419 369.893 240.834 367.542 239.111C363.602 235.632 360.256 231.896 357.505 227.903C357.354 226.55 356.518 225.72 354.996 225.412C341.508 234.189 327.289 240.831 312.338 245.338C308.156 245.338 303.974 245.338 299.792 245.338C299.792 251.981 299.792 258.621 299.792 265.264C290.078 264.48 280.877 265.309 272.19 267.755C271.354 267.755 270.517 267.755 269.681 267.755C267.501 262.233 266.665 256.422 267.172 250.32C263.932 250.91 261.423 250.081 259.644 247.829C262.284 248.201 264.793 247.786 267.172 246.584C256.232 244.496 246.195 240.76 237.061 235.375C237.061 234.545 237.061 233.715 237.061 232.884C249.214 237.711 261.76 241.447 274.699 244.093C277.016 249.176 277.852 254.574 277.209 260.283C283.064 260.283 288.919 260.283 294.774 260.283C294.774 254.472 294.774 248.659 294.774 242.847C317.138 239.879 337.212 231.577 354.996 217.94C359.971 221.631 364.572 225.783 368.797 230.394C373.859 225.786 378.46 220.804 382.598 215.449C380.86 212.914 379.187 210.423 377.579 207.977C377.579 207.147 377.579 206.316 377.579 205.486Z" fill="#CBAE29"/>
<path fill-rule="evenodd" clip-rule="evenodd" d="M312.338 247.829C310.559 250.081 308.049 250.91 304.81 250.32C304.81 256.131 304.81 261.944 304.81 267.755C303.974 267.755 303.137 267.755 302.301 267.755C302.301 261.112 302.301 254.472 302.301 247.829C305.646 247.829 308.992 247.829 312.338 247.829Z" fill="#A7BB0C"/>
<path fill-rule="evenodd" clip-rule="evenodd" d="M312.338 245.338C312.338 246.168 312.338 246.998 312.338 247.829C308.992 247.829 305.646 247.829 302.301 247.829C302.301 254.471 302.301 261.112 302.301 267.755C292.264 267.755 282.226 267.755 272.189 267.755C280.876 265.309 290.077 264.479 299.791 265.264C299.791 258.621 299.791 251.981 299.791 245.338C303.973 245.338 308.155 245.338 312.338 245.338Z" fill="#3A4406"/>
</g>
<path d="M120.564 307V289.15H133.964V307H131.739V291.125H122.814V307H120.564ZM143.575 289.15C145.908 289.15 147.608 289.608 148.675 290.525C149.741 291.442 150.275 292.733 150.275 294.4C150.275 295.133 150.15 295.842 149.9 296.525C149.666 297.192 149.275 297.792 148.725 298.325C148.175 298.858 147.441 299.283 146.525 299.6C145.608 299.9 144.483 300.05 143.15 300.05H141.1V307H138.85V289.15H143.575ZM143.375 291.075H141.1V298.125H142.9C144.033 298.125 144.975 298.008 145.725 297.775C146.475 297.525 147.033 297.133 147.4 296.6C147.766 296.067 147.95 295.367 147.95 294.5C147.95 293.35 147.583 292.492 146.85 291.925C146.116 291.358 144.958 291.075 143.375 291.075ZM169.562 298.05C169.562 299.433 169.387 300.692 169.037 301.825C168.687 302.942 168.162 303.908 167.462 304.725C166.778 305.542 165.92 306.167 164.887 306.6C163.87 307.033 162.687 307.25 161.337 307.25C159.937 307.25 158.72 307.033 157.687 306.6C156.653 306.15 155.795 305.525 155.112 304.725C154.428 303.908 153.92 302.933 153.587 301.8C153.253 300.667 153.087 299.408 153.087 298.025C153.087 296.192 153.387 294.592 153.987 293.225C154.587 291.858 155.495 290.792 156.712 290.025C157.945 289.258 159.495 288.875 161.362 288.875C163.145 288.875 164.645 289.258 165.862 290.025C167.078 290.775 167.995 291.842 168.612 293.225C169.245 294.592 169.562 296.2 169.562 298.05ZM155.462 298.05C155.462 299.55 155.67 300.842 156.087 301.925C156.503 303.008 157.145 303.842 158.012 304.425C158.895 305.008 160.003 305.3 161.337 305.3C162.687 305.3 163.787 305.008 164.637 304.425C165.503 303.842 166.145 303.008 166.562 301.925C166.978 300.842 167.187 299.55 167.187 298.05C167.187 295.8 166.72 294.042 165.787 292.775C164.853 291.492 163.378 290.85 161.362 290.85C160.012 290.85 158.895 291.142 158.012 291.725C157.145 292.292 156.503 293.117 156.087 294.2C155.67 295.267 155.462 296.55 155.462 298.05ZM182.243 288.9V291.1C184.176 291.133 185.701 291.45 186.818 292.05C187.934 292.65 188.726 293.45 189.193 294.45C189.659 295.433 189.893 296.533 189.893 297.75C189.893 298.55 189.768 299.35 189.518 300.15C189.284 300.933 188.876 301.65 188.293 302.3C187.709 302.933 186.926 303.45 185.943 303.85C184.959 304.25 183.726 304.467 182.243 304.5V307.25H180.018V304.5C178.501 304.467 177.243 304.25 176.243 303.85C175.259 303.433 174.484 302.9 173.918 302.25C173.351 301.583 172.951 300.858 172.718 300.075C172.484 299.292 172.368 298.517 172.368 297.75C172.368 296.867 172.493 296.033 172.743 295.25C173.009 294.45 173.434 293.75 174.018 293.15C174.618 292.533 175.409 292.042 176.393 291.675C177.376 291.308 178.584 291.117 180.018 291.1V288.9H182.243ZM180.018 293C178.684 293.033 177.618 293.25 176.818 293.65C176.034 294.05 175.476 294.6 175.143 295.3C174.809 295.983 174.643 296.792 174.643 297.725C174.643 298.708 174.826 299.567 175.193 300.3C175.576 301.017 176.159 301.575 176.943 301.975C177.743 302.375 178.768 302.6 180.018 302.65V293ZM182.243 302.65C183.526 302.6 184.559 302.367 185.343 301.95C186.143 301.533 186.718 300.967 187.068 300.25C187.434 299.517 187.618 298.675 187.618 297.725C187.618 296.775 187.451 295.958 187.118 295.275C186.784 294.575 186.226 294.033 185.443 293.65C184.659 293.25 183.593 293.033 182.243 293V302.65ZM201.261 290.875C200.311 290.875 199.452 291.042 198.686 291.375C197.919 291.692 197.269 292.167 196.736 292.8C196.202 293.417 195.794 294.175 195.511 295.075C195.227 295.958 195.086 296.958 195.086 298.075C195.086 299.542 195.311 300.817 195.761 301.9C196.227 302.983 196.911 303.817 197.811 304.4C198.727 304.983 199.869 305.275 201.236 305.275C202.019 305.275 202.761 305.208 203.461 305.075C204.161 304.942 204.844 304.775 205.511 304.575V306.525C204.844 306.775 204.152 306.958 203.436 307.075C202.736 307.192 201.894 307.25 200.911 307.25C199.094 307.25 197.577 306.875 196.361 306.125C195.144 305.375 194.227 304.308 193.611 302.925C193.011 301.542 192.711 299.917 192.711 298.05C192.711 296.7 192.894 295.467 193.261 294.35C193.644 293.233 194.194 292.267 194.911 291.45C195.644 290.633 196.544 290.008 197.611 289.575C198.677 289.125 199.902 288.9 201.286 288.9C202.202 288.9 203.086 288.992 203.936 289.175C204.786 289.358 205.544 289.617 206.211 289.95L205.311 291.85C204.761 291.6 204.144 291.375 203.461 291.175C202.794 290.975 202.061 290.875 201.261 290.875ZM209.406 307V289.15H222.806V307H220.581V291.125H211.656V307H209.406ZM232.718 307H226.268V305.7L228.368 305.225V290.95L226.268 290.45V289.15H232.718V290.45L230.618 290.95V305.225L232.718 305.7V307ZM249.014 307H246.764V291.125H241.114C240.998 292.042 240.873 293.008 240.739 294.025C240.606 295.025 240.464 296.017 240.314 297C240.181 297.983 240.048 298.908 239.914 299.775C239.781 300.642 239.648 301.4 239.514 302.05C239.298 303.167 239.031 304.117 238.714 304.9C238.398 305.683 237.973 306.275 237.439 306.675C236.923 307.075 236.239 307.275 235.389 307.275C235.106 307.275 234.814 307.242 234.514 307.175C234.231 307.125 233.981 307.058 233.764 306.975V305.1C233.948 305.183 234.156 305.258 234.389 305.325C234.623 305.375 234.873 305.4 235.139 305.4C235.639 305.4 236.031 305.2 236.314 304.8C236.614 304.383 236.848 303.875 237.014 303.275C237.181 302.658 237.323 302.05 237.439 301.45C237.539 300.967 237.656 300.325 237.789 299.525C237.923 298.708 238.064 297.758 238.214 296.675C238.381 295.592 238.548 294.417 238.714 293.15C238.898 291.867 239.073 290.533 239.239 289.15H249.014V307ZM266.889 307H264.189L256.114 297.95V307H253.864V289.15H256.114V297.8L263.989 289.15H266.539L258.789 297.825L266.889 307ZM280.519 307L278.369 301.475H271.294L269.169 307H266.894L273.869 289.075H275.894L282.844 307H280.519ZM275.694 294.075C275.644 293.942 275.56 293.7 275.444 293.35C275.327 293 275.21 292.642 275.094 292.275C274.994 291.892 274.91 291.6 274.844 291.4C274.76 291.733 274.669 292.075 274.569 292.425C274.485 292.758 274.394 293.067 274.294 293.35C274.21 293.633 274.135 293.875 274.069 294.075L272.044 299.475H277.694L275.694 294.075ZM291.975 307V289.15H305.375V307H303.15V291.125H294.225V307H291.975ZM314.986 289.15C317.319 289.15 319.019 289.608 320.086 290.525C321.153 291.442 321.686 292.733 321.686 294.4C321.686 295.133 321.561 295.842 321.311 296.525C321.078 297.192 320.686 297.792 320.136 298.325C319.586 298.858 318.853 299.283 317.936 299.6C317.019 299.9 315.894 300.05 314.561 300.05H312.511V307H310.261V289.15H314.986ZM314.786 291.075H312.511V298.125H314.311C315.444 298.125 316.386 298.008 317.136 297.775C317.886 297.525 318.444 297.133 318.811 296.6C319.178 296.067 319.361 295.367 319.361 294.5C319.361 293.35 318.994 292.492 318.261 291.925C317.528 291.358 316.369 291.075 314.786 291.075ZM335.353 307L333.203 301.475H326.128L324.003 307H321.728L328.703 289.075H330.728L337.678 307H335.353ZM330.528 294.075C330.478 293.942 330.394 293.7 330.278 293.35C330.161 293 330.044 292.642 329.928 292.275C329.828 291.892 329.744 291.6 329.678 291.4C329.594 291.733 329.503 292.075 329.403 292.425C329.319 292.758 329.228 293.067 329.128 293.35C329.044 293.633 328.969 293.875 328.903 294.075L326.878 299.475H332.528L330.528 294.075ZM355.694 305.025V311.7H353.544V307H340.119V289.15H342.369V305H351.294V289.15H353.519V305.025H355.694ZM363.675 307H357.225V305.7L359.325 305.225V290.95L357.225 290.45V289.15H363.675V290.45L361.575 290.95V305.225L363.675 305.7V307ZM372.221 289.15C373.705 289.15 374.946 289.292 375.946 289.575C376.963 289.858 377.721 290.325 378.221 290.975C378.738 291.625 378.996 292.492 378.996 293.575C378.996 294.275 378.863 294.9 378.596 295.45C378.346 295.983 377.963 296.433 377.446 296.8C376.946 297.15 376.33 297.392 375.596 297.525V297.65C376.346 297.767 377.021 297.983 377.621 298.3C378.238 298.617 378.721 299.067 379.071 299.65C379.421 300.233 379.596 300.992 379.596 301.925C379.596 303.008 379.346 303.933 378.846 304.7C378.346 305.45 377.63 306.025 376.696 306.425C375.78 306.808 374.68 307 373.396 307H367.121V289.15H372.221ZM372.671 296.75C374.205 296.75 375.255 296.508 375.821 296.025C376.388 295.525 376.671 294.792 376.671 293.825C376.671 292.842 376.321 292.142 375.621 291.725C374.938 291.292 373.838 291.075 372.321 291.075H369.371V296.75H372.671ZM369.371 298.625V305.1H372.971C374.555 305.1 375.655 304.792 376.271 304.175C376.888 303.558 377.196 302.75 377.196 301.75C377.196 301.117 377.055 300.567 376.771 300.1C376.505 299.633 376.046 299.275 375.396 299.025C374.763 298.758 373.896 298.625 372.796 298.625H369.371ZM397.031 307H394.781V298.675H385.631V307H383.381V289.15H385.631V296.7H394.781V289.15H397.031V307ZM401.936 289.15H404.036V298.95C404.036 299.367 404.028 299.825 404.011 300.325C404.011 300.808 404.003 301.292 403.986 301.775C403.97 302.258 403.945 302.692 403.911 303.075C403.895 303.442 403.878 303.725 403.861 303.925H403.961L413.786 289.15H416.286V307H414.186V297.3C414.186 296.85 414.195 296.367 414.211 295.85C414.228 295.317 414.245 294.808 414.261 294.325C414.295 293.825 414.32 293.383 414.336 293C414.353 292.617 414.37 292.333 414.386 292.15H414.286L404.436 307H401.936V289.15ZM434.126 307H431.426L423.351 297.95V307H421.101V289.15H423.351V297.8L431.226 289.15H433.776L426.026 297.825L434.126 307ZM441.58 307H435.13V305.7L437.23 305.225V290.95L435.13 290.45V289.15H441.58V290.45L439.48 290.95V305.225L441.58 305.7V307ZM450.127 289.15C451.61 289.15 452.852 289.292 453.852 289.575C454.868 289.858 455.627 290.325 456.127 290.975C456.643 291.625 456.902 292.492 456.902 293.575C456.902 294.275 456.768 294.9 456.502 295.45C456.252 295.983 455.868 296.433 455.352 296.8C454.852 297.15 454.235 297.392 453.502 297.525V297.65C454.252 297.767 454.927 297.983 455.527 298.3C456.143 298.617 456.627 299.067 456.977 299.65C457.327 300.233 457.502 300.992 457.502 301.925C457.502 303.008 457.252 303.933 456.752 304.7C456.252 305.45 455.535 306.025 454.602 306.425C453.685 306.808 452.585 307 451.302 307H445.027V289.15H450.127ZM450.577 296.75C452.11 296.75 453.16 296.508 453.727 296.025C454.293 295.525 454.577 294.792 454.577 293.825C454.577 292.842 454.227 292.142 453.527 291.725C452.843 291.292 451.743 291.075 450.227 291.075H447.277V296.75H450.577ZM447.277 298.625V305.1H450.877C452.46 305.1 453.56 304.792 454.177 304.175C454.793 303.558 455.102 302.75 455.102 301.75C455.102 301.117 454.96 300.567 454.677 300.1C454.41 299.633 453.952 299.275 453.302 299.025C452.668 298.758 451.802 298.625 450.702 298.625H447.277ZM25.4038 332L23.2538 326.475H16.1788L14.0538 332H11.7788L18.7538 314.075H20.7788L27.7288 332H25.4038ZM20.5788 319.075C20.5288 318.942 20.4455 318.7 20.3288 318.35C20.2121 318 20.0955 317.642 19.9788 317.275C19.8788 316.892 19.7955 316.6 19.7288 316.4C19.6455 316.733 19.5538 317.075 19.4538 317.425C19.3705 317.758 19.2788 318.067 19.1788 318.35C19.0955 318.633 19.0205 318.875 18.9538 319.075L16.9288 324.475H22.5788L20.5788 319.075ZM40.2456 314.15V316.15H32.4206V332H30.1706V314.15H40.2456ZM48.006 314.15C50.3393 314.15 52.0393 314.608 53.106 315.525C54.1726 316.442 54.706 317.733 54.706 319.4C54.706 320.133 54.581 320.842 54.331 321.525C54.0976 322.192 53.706 322.792 53.156 323.325C52.606 323.858 51.8726 324.283 50.956 324.6C50.0393 324.9 48.9143 325.05 47.581 325.05H45.531V332H43.281V314.15H48.006ZM47.806 316.075H45.531V323.125H47.331C48.4643 323.125 49.406 323.008 50.156 322.775C50.906 322.525 51.4643 322.133 51.831 321.6C52.1976 321.067 52.381 320.367 52.381 319.5C52.381 318.35 52.0143 317.492 51.281 316.925C50.5476 316.358 49.3893 316.075 47.806 316.075ZM73.9927 323.05C73.9927 324.433 73.8177 325.692 73.4677 326.825C73.1177 327.942 72.5927 328.908 71.8927 329.725C71.2093 330.542 70.351 331.167 69.3177 331.6C68.301 332.033 67.1177 332.25 65.7677 332.25C64.3677 332.25 63.151 332.033 62.1177 331.6C61.0843 331.15 60.226 330.525 59.5427 329.725C58.8593 328.908 58.351 327.933 58.0177 326.8C57.6843 325.667 57.5177 324.408 57.5177 323.025C57.5177 321.192 57.8177 319.592 58.4177 318.225C59.0177 316.858 59.926 315.792 61.1427 315.025C62.376 314.258 63.926 313.875 65.7927 313.875C67.576 313.875 69.076 314.258 70.2927 315.025C71.5093 315.775 72.426 316.842 73.0427 318.225C73.676 319.592 73.9927 321.2 73.9927 323.05ZM59.8927 323.05C59.8927 324.55 60.101 325.842 60.5177 326.925C60.9343 328.008 61.576 328.842 62.4427 329.425C63.326 330.008 64.4343 330.3 65.7677 330.3C67.1177 330.3 68.2177 330.008 69.0677 329.425C69.9343 328.842 70.576 328.008 70.9927 326.925C71.4093 325.842 71.6177 324.55 71.6177 323.05C71.6177 320.8 71.151 319.042 70.2177 317.775C69.2843 316.492 67.8093 315.85 65.7927 315.85C64.4427 315.85 63.326 316.142 62.4427 316.725C61.576 317.292 60.9343 318.117 60.5177 319.2C60.101 320.267 59.8927 321.55 59.8927 323.05ZM77.9489 332V314.15H91.3489V332H89.1239V316.125H80.1989V332H77.9489ZM100.96 314.15C103.293 314.15 104.993 314.608 106.06 315.525C107.127 316.442 107.66 317.733 107.66 319.4C107.66 320.133 107.535 320.842 107.285 321.525C107.052 322.192 106.66 322.792 106.11 323.325C105.56 323.858 104.827 324.283 103.91 324.6C102.993 324.9 101.868 325.05 100.535 325.05H98.4851V332H96.2351V314.15H100.96ZM100.76 316.075H98.4851V323.125H100.285C101.418 323.125 102.36 323.008 103.11 322.775C103.86 322.525 104.418 322.133 104.785 321.6C105.152 321.067 105.335 320.367 105.335 319.5C105.335 318.35 104.968 317.492 104.235 316.925C103.502 316.358 102.343 316.075 100.76 316.075ZM126.947 323.05C126.947 324.433 126.772 325.692 126.422 326.825C126.072 327.942 125.547 328.908 124.847 329.725C124.163 330.542 123.305 331.167 122.272 331.6C121.255 332.033 120.072 332.25 118.722 332.25C117.322 332.25 116.105 332.033 115.072 331.6C114.038 331.15 113.18 330.525 112.497 329.725C111.813 328.908 111.305 327.933 110.972 326.8C110.638 325.667 110.472 324.408 110.472 323.025C110.472 321.192 110.772 319.592 111.372 318.225C111.972 316.858 112.88 315.792 114.097 315.025C115.33 314.258 116.88 313.875 118.747 313.875C120.53 313.875 122.03 314.258 123.247 315.025C124.463 315.775 125.38 316.842 125.997 318.225C126.63 319.592 126.947 321.2 126.947 323.05ZM112.847 323.05C112.847 324.55 113.055 325.842 113.472 326.925C113.888 328.008 114.53 328.842 115.397 329.425C116.28 330.008 117.388 330.3 118.722 330.3C120.072 330.3 121.172 330.008 122.022 329.425C122.888 328.842 123.53 328.008 123.947 326.925C124.363 325.842 124.572 324.55 124.572 323.05C124.572 320.8 124.105 319.042 123.172 317.775C122.238 316.492 120.763 315.85 118.747 315.85C117.397 315.85 116.28 316.142 115.397 316.725C114.53 317.292 113.888 318.117 113.472 319.2C113.055 320.267 112.847 321.55 112.847 323.05ZM138.778 332L132.903 316.35H132.803C132.836 316.683 132.861 317.108 132.878 317.625C132.911 318.142 132.936 318.708 132.953 319.325C132.97 319.925 132.978 320.542 132.978 321.175V332H130.903V314.15H134.228L139.728 328.775H139.828L145.428 314.15H148.728V332H146.503V321.025C146.503 320.442 146.511 319.867 146.528 319.3C146.545 318.717 146.57 318.175 146.603 317.675C146.636 317.158 146.661 316.725 146.678 316.375H146.578L140.628 332H138.778ZM153.609 314.15H155.709V323.95C155.709 324.367 155.7 324.825 155.684 325.325C155.684 325.808 155.675 326.292 155.659 326.775C155.642 327.258 155.617 327.692 155.584 328.075C155.567 328.442 155.55 328.725 155.534 328.925H155.634L165.459 314.15H167.959V332H165.859V322.3C165.859 321.85 165.867 321.367 165.884 320.85C165.9 320.317 165.917 319.808 165.934 319.325C165.967 318.825 165.992 318.383 166.009 318C166.025 317.617 166.042 317.333 166.059 317.15H165.959L156.109 332H153.609V314.15ZM180.423 315.875C179.473 315.875 178.615 316.042 177.848 316.375C177.081 316.692 176.431 317.167 175.898 317.8C175.365 318.417 174.956 319.175 174.673 320.075C174.39 320.958 174.248 321.958 174.248 323.075C174.248 324.542 174.473 325.817 174.923 326.9C175.39 327.983 176.073 328.817 176.973 329.4C177.89 329.983 179.031 330.275 180.398 330.275C181.181 330.275 181.923 330.208 182.623 330.075C183.323 329.942 184.006 329.775 184.673 329.575V331.525C184.006 331.775 183.315 331.958 182.598 332.075C181.898 332.192 181.056 332.25 180.073 332.25C178.256 332.25 176.74 331.875 175.523 331.125C174.306 330.375 173.39 329.308 172.773 327.925C172.173 326.542 171.873 324.917 171.873 323.05C171.873 321.7 172.056 320.467 172.423 319.35C172.806 318.233 173.356 317.267 174.073 316.45C174.806 315.633 175.706 315.008 176.773 314.575C177.84 314.125 179.065 313.9 180.448 313.9C181.365 313.9 182.248 313.992 183.098 314.175C183.948 314.358 184.706 314.617 185.373 314.95L184.473 316.85C183.923 316.6 183.306 316.375 182.623 316.175C181.956 315.975 181.223 315.875 180.423 315.875ZM201.419 332H199.169V316.125H193.519C193.402 317.042 193.277 318.008 193.144 319.025C193.011 320.025 192.869 321.017 192.719 322C192.586 322.983 192.452 323.908 192.319 324.775C192.186 325.642 192.052 326.4 191.919 327.05C191.702 328.167 191.436 329.117 191.119 329.9C190.802 330.683 190.377 331.275 189.844 331.675C189.327 332.075 188.644 332.275 187.794 332.275C187.511 332.275 187.219 332.242 186.919 332.175C186.636 332.125 186.386 332.058 186.169 331.975V330.1C186.352 330.183 186.561 330.258 186.794 330.325C187.027 330.375 187.277 330.4 187.544 330.4C188.044 330.4 188.436 330.2 188.719 329.8C189.019 329.383 189.252 328.875 189.419 328.275C189.586 327.658 189.727 327.05 189.844 326.45C189.944 325.967 190.061 325.325 190.194 324.525C190.327 323.708 190.469 322.758 190.619 321.675C190.786 320.592 190.952 319.417 191.119 318.15C191.302 316.867 191.477 315.533 191.644 314.15H201.419V332ZM221.844 323.05C221.844 324.433 221.669 325.692 221.319 326.825C220.969 327.942 220.444 328.908 219.744 329.725C219.061 330.542 218.203 331.167 217.169 331.6C216.153 332.033 214.969 332.25 213.619 332.25C212.219 332.25 211.003 332.033 209.969 331.6C208.936 331.15 208.078 330.525 207.394 329.725C206.711 328.908 206.203 327.933 205.869 326.8C205.536 325.667 205.369 324.408 205.369 323.025C205.369 321.192 205.669 319.592 206.269 318.225C206.869 316.858 207.778 315.792 208.994 315.025C210.228 314.258 211.778 313.875 213.644 313.875C215.428 313.875 216.928 314.258 218.144 315.025C219.361 315.775 220.278 316.842 220.894 318.225C221.528 319.592 221.844 321.2 221.844 323.05ZM207.744 323.05C207.744 324.55 207.953 325.842 208.369 326.925C208.786 328.008 209.428 328.842 210.294 329.425C211.178 330.008 212.286 330.3 213.619 330.3C214.969 330.3 216.069 330.008 216.919 329.425C217.786 328.842 218.428 328.008 218.844 326.925C219.261 325.842 219.469 324.55 219.469 323.05C219.469 320.8 219.003 319.042 218.069 317.775C217.136 316.492 215.661 315.85 213.644 315.85C212.294 315.85 211.178 316.142 210.294 316.725C209.428 317.292 208.786 318.117 208.369 319.2C207.953 320.267 207.744 321.55 207.744 323.05ZM230.9 314.15C232.384 314.15 233.625 314.292 234.625 314.575C235.642 314.858 236.4 315.325 236.9 315.975C237.417 316.625 237.675 317.492 237.675 318.575C237.675 319.275 237.542 319.9 237.275 320.45C237.025 320.983 236.642 321.433 236.125 321.8C235.625 322.15 235.009 322.392 234.275 322.525V322.65C235.025 322.767 235.7 322.983 236.3 323.3C236.917 323.617 237.4 324.067 237.75 324.65C238.1 325.233 238.275 325.992 238.275 326.925C238.275 328.008 238.025 328.933 237.525 329.7C237.025 330.45 236.309 331.025 235.375 331.425C234.459 331.808 233.359 332 232.075 332H225.8V314.15H230.9ZM231.35 321.75C232.884 321.75 233.934 321.508 234.5 321.025C235.067 320.525 235.35 319.792 235.35 318.825C235.35 317.842 235 317.142 234.3 316.725C233.617 316.292 232.517 316.075 231 316.075H228.05V321.75H231.35ZM228.05 323.625V330.1H231.65C233.234 330.1 234.334 329.792 234.95 329.175C235.567 328.558 235.875 327.75 235.875 326.75C235.875 326.117 235.734 325.567 235.45 325.1C235.184 324.633 234.725 324.275 234.075 324.025C233.442 323.758 232.575 323.625 231.475 323.625H228.05ZM257.635 323.05C257.635 324.433 257.46 325.692 257.11 326.825C256.76 327.942 256.235 328.908 255.535 329.725C254.852 330.542 253.994 331.167 252.96 331.6C251.944 332.033 250.76 332.25 249.41 332.25C248.01 332.25 246.794 332.033 245.76 331.6C244.727 331.15 243.869 330.525 243.185 329.725C242.502 328.908 241.994 327.933 241.66 326.8C241.327 325.667 241.16 324.408 241.16 323.025C241.16 321.192 241.46 319.592 242.06 318.225C242.66 316.858 243.569 315.792 244.785 315.025C246.019 314.258 247.569 313.875 249.435 313.875C251.219 313.875 252.719 314.258 253.935 315.025C255.152 315.775 256.069 316.842 256.685 318.225C257.319 319.592 257.635 321.2 257.635 323.05ZM243.535 323.05C243.535 324.55 243.744 325.842 244.16 326.925C244.577 328.008 245.219 328.842 246.085 329.425C246.969 330.008 248.077 330.3 249.41 330.3C250.76 330.3 251.86 330.008 252.71 329.425C253.577 328.842 254.219 328.008 254.635 326.925C255.052 325.842 255.26 324.55 255.26 323.05C255.26 320.8 254.794 319.042 253.86 317.775C252.927 316.492 251.452 315.85 249.435 315.85C248.085 315.85 246.969 316.142 246.085 316.725C245.219 317.292 244.577 318.117 244.16 319.2C243.744 320.267 243.535 321.55 243.535 323.05ZM271.667 314.15V316.15H263.842V332H261.592V314.15H271.667ZM289.789 323.05C289.789 324.433 289.614 325.692 289.264 326.825C288.914 327.942 288.389 328.908 287.689 329.725C287.005 330.542 286.147 331.167 285.114 331.6C284.097 332.033 282.914 332.25 281.564 332.25C280.164 332.25 278.947 332.033 277.914 331.6C276.88 331.15 276.022 330.525 275.339 329.725C274.655 328.908 274.147 327.933 273.814 326.8C273.48 325.667 273.314 324.408 273.314 323.025C273.314 321.192 273.614 319.592 274.214 318.225C274.814 316.858 275.722 315.792 276.939 315.025C278.172 314.258 279.722 313.875 281.589 313.875C283.372 313.875 284.872 314.258 286.089 315.025C287.305 315.775 288.222 316.842 288.839 318.225C289.472 319.592 289.789 321.2 289.789 323.05ZM275.689 323.05C275.689 324.55 275.897 325.842 276.314 326.925C276.73 328.008 277.372 328.842 278.239 329.425C279.122 330.008 280.23 330.3 281.564 330.3C282.914 330.3 284.014 330.008 284.864 329.425C285.73 328.842 286.372 328.008 286.789 326.925C287.205 325.842 287.414 324.55 287.414 323.05C287.414 320.8 286.947 319.042 286.014 317.775C285.08 316.492 283.605 315.85 281.589 315.85C280.239 315.85 279.122 316.142 278.239 316.725C277.372 317.292 276.73 318.117 276.314 319.2C275.897 320.267 275.689 321.55 275.689 323.05ZM313.459 332H310.759L302.684 322.95V332H300.434V314.15H302.684V322.8L310.559 314.15H313.109L305.359 322.825L313.459 332ZM330.975 323.05C330.975 324.433 330.8 325.692 330.45 326.825C330.1 327.942 329.575 328.908 328.875 329.725C328.192 330.542 327.333 331.167 326.3 331.6C325.283 332.033 324.1 332.25 322.75 332.25C321.35 332.25 320.133 332.033 319.1 331.6C318.067 331.15 317.208 330.525 316.525 329.725C315.842 328.908 315.333 327.933 315 326.8C314.667 325.667 314.5 324.408 314.5 323.025C314.5 321.192 314.8 319.592 315.4 318.225C316 316.858 316.908 315.792 318.125 315.025C319.358 314.258 320.908 313.875 322.775 313.875C324.558 313.875 326.058 314.258 327.275 315.025C328.492 315.775 329.408 316.842 330.025 318.225C330.658 319.592 330.975 321.2 330.975 323.05ZM316.875 323.05C316.875 324.55 317.083 325.842 317.5 326.925C317.917 328.008 318.558 328.842 319.425 329.425C320.308 330.008 321.417 330.3 322.75 330.3C324.1 330.3 325.2 330.008 326.05 329.425C326.917 328.842 327.558 328.008 327.975 326.925C328.392 325.842 328.6 324.55 328.6 323.05C328.6 320.8 328.133 319.042 327.2 317.775C326.267 316.492 324.792 315.85 322.775 315.85C321.425 315.85 320.308 316.142 319.425 316.725C318.558 317.292 317.917 318.117 317.5 319.2C317.083 320.267 316.875 321.55 316.875 323.05ZM342.806 332L336.931 316.35H336.831C336.865 316.683 336.89 317.108 336.906 317.625C336.94 318.142 336.965 318.708 336.981 319.325C336.998 319.925 337.006 320.542 337.006 321.175V332H334.931V314.15H338.256L343.756 328.775H343.856L349.456 314.15H352.756V332H350.531V321.025C350.531 320.442 350.54 319.867 350.556 319.3C350.573 318.717 350.598 318.175 350.631 317.675C350.665 317.158 350.69 316.725 350.706 316.375H350.606L344.656 332H342.806ZM357.612 332V314.15H371.012V332H368.787V316.125H359.862V332H357.612ZM388.748 332H386.498V316.125H380.848C380.731 317.042 380.606 318.008 380.473 319.025C380.34 320.025 380.198 321.017 380.048 322C379.915 322.983 379.781 323.908 379.648 324.775C379.515 325.642 379.381 326.4 379.248 327.05C379.031 328.167 378.765 329.117 378.448 329.9C378.131 330.683 377.706 331.275 377.173 331.675C376.656 332.075 375.973 332.275 375.123 332.275C374.84 332.275 374.548 332.242 374.248 332.175C373.965 332.125 373.715 332.058 373.498 331.975V330.1C373.681 330.183 373.89 330.258 374.123 330.325C374.356 330.375 374.606 330.4 374.873 330.4C375.373 330.4 375.765 330.2 376.048 329.8C376.348 329.383 376.581 328.875 376.748 328.275C376.915 327.658 377.056 327.05 377.173 326.45C377.273 325.967 377.39 325.325 377.523 324.525C377.656 323.708 377.798 322.758 377.948 321.675C378.115 320.592 378.281 319.417 378.448 318.15C378.631 316.867 378.806 315.533 378.973 314.15H388.748V332ZM403.573 332H393.598V314.15H403.573V316.125H395.848V321.7H403.123V323.65H395.848V330.025H403.573V332ZM420.515 332H417.815L409.74 322.95V332H407.49V314.15H409.74V322.8L417.615 314.15H420.165L412.415 322.825L420.515 332ZM430.106 315.875C429.156 315.875 428.297 316.042 427.531 316.375C426.764 316.692 426.114 317.167 425.581 317.8C425.047 318.417 424.639 319.175 424.356 320.075C424.072 320.958 423.931 321.958 423.931 323.075C423.931 324.542 424.156 325.817 424.606 326.9C425.072 327.983 425.756 328.817 426.656 329.4C427.572 329.983 428.714 330.275 430.081 330.275C430.864 330.275 431.606 330.208 432.306 330.075C433.006 329.942 433.689 329.775 434.356 329.575V331.525C433.689 331.775 432.997 331.958 432.281 332.075C431.581 332.192 430.739 332.25 429.756 332.25C427.939 332.25 426.422 331.875 425.206 331.125C423.989 330.375 423.072 329.308 422.456 327.925C421.856 326.542 421.556 324.917 421.556 323.05C421.556 321.7 421.739 320.467 422.106 319.35C422.489 318.233 423.039 317.267 423.756 316.45C424.489 315.633 425.389 315.008 426.456 314.575C427.522 314.125 428.747 313.9 430.131 313.9C431.047 313.9 431.931 313.992 432.781 314.175C433.631 314.358 434.389 314.617 435.056 314.95L434.156 316.85C433.606 316.6 432.989 316.375 432.306 316.175C431.639 315.975 430.906 315.875 430.106 315.875ZM445.727 326.925C445.193 328.108 444.652 329.1 444.102 329.9C443.568 330.683 442.935 331.275 442.202 331.675C441.468 332.058 440.535 332.25 439.402 332.25C438.935 332.25 438.493 332.217 438.077 332.15C437.677 332.083 437.31 331.992 436.977 331.875V329.65C437.31 329.8 437.668 329.925 438.052 330.025C438.435 330.108 438.835 330.15 439.252 330.15C439.868 330.15 440.393 330.067 440.827 329.9C441.277 329.717 441.668 329.425 442.002 329.025C442.352 328.625 442.677 328.092 442.977 327.425L436.102 314.15H438.577L443.552 323.975C443.618 324.092 443.685 324.233 443.752 324.4C443.818 324.55 443.885 324.708 443.952 324.875C444.035 325.042 444.102 325.2 444.152 325.35H444.252C444.302 325.233 444.352 325.1 444.402 324.95C444.468 324.783 444.527 324.625 444.577 324.475C444.643 324.308 444.702 324.167 444.752 324.05L449.052 314.15H451.427L445.727 326.925ZM468.017 326.925C467.483 328.108 466.942 329.1 466.392 329.9C465.858 330.683 465.225 331.275 464.492 331.675C463.758 332.058 462.825 332.25 461.692 332.25C461.225 332.25 460.783 332.217 460.367 332.15C459.967 332.083 459.6 331.992 459.267 331.875V329.65C459.6 329.8 459.958 329.925 460.342 330.025C460.725 330.108 461.125 330.15 461.542 330.15C462.158 330.15 462.683 330.067 463.117 329.9C463.567 329.717 463.958 329.425 464.292 329.025C464.642 328.625 464.967 328.092 465.267 327.425L458.392 314.15H460.867L465.842 323.975C465.908 324.092 465.975 324.233 466.042 324.4C466.108 324.55 466.175 324.708 466.242 324.875C466.325 325.042 466.392 325.2 466.442 325.35H466.542C466.592 325.233 466.642 325.1 466.692 324.95C466.758 324.783 466.817 324.625 466.867 324.475C466.933 324.308 466.992 324.167 467.042 324.05L471.342 314.15H473.717L468.017 326.925ZM489.167 332H486.467L478.392 322.95V332H476.142V314.15H478.392V322.8L486.267 314.15H488.817L481.067 322.825L489.167 332ZM496.321 314.15C498.655 314.15 500.355 314.608 501.421 315.525C502.488 316.442 503.021 317.733 503.021 319.4C503.021 320.133 502.896 320.842 502.646 321.525C502.413 322.192 502.021 322.792 501.471 323.325C500.921 323.858 500.188 324.283 499.271 324.6C498.355 324.9 497.23 325.05 495.896 325.05H493.846V332H491.596V314.15H496.321ZM496.121 316.075H493.846V323.125H495.646C496.78 323.125 497.721 323.008 498.471 322.775C499.221 322.525 499.78 322.133 500.146 321.6C500.513 321.067 500.696 320.367 500.696 319.5C500.696 318.35 500.33 317.492 499.596 316.925C498.863 316.358 497.705 316.075 496.121 316.075ZM516.688 332L514.538 326.475H507.463L505.338 332H503.063L510.038 314.075H512.063L519.013 332H516.688ZM511.863 319.075C511.813 318.942 511.73 318.7 511.613 318.35C511.496 318 511.38 317.642 511.263 317.275C511.163 316.892 511.08 316.6 511.013 316.4C510.93 316.733 510.838 317.075 510.738 317.425C510.655 317.758 510.563 318.067 510.463 318.35C510.38 318.633 510.305 318.875 510.238 319.075L508.213 324.475H513.863L511.863 319.075ZM526.48 332H520.03V330.7L522.13 330.225V315.95L520.03 315.45V314.15H526.48V315.45L524.38 315.95V330.225L526.48 330.7V332ZM519.78 310.525C519.78 310.092 519.896 309.783 520.13 309.6C520.363 309.4 520.638 309.3 520.955 309.3C521.271 309.3 521.546 309.4 521.78 309.6C522.013 309.783 522.13 310.092 522.13 310.525C522.13 310.942 522.013 311.258 521.78 311.475C521.546 311.675 521.271 311.775 520.955 311.775C520.638 311.775 520.363 311.675 520.13 311.475C519.896 311.258 519.78 310.942 519.78 310.525ZM524.48 310.525C524.48 310.092 524.588 309.783 524.805 309.6C525.038 309.4 525.313 309.3 525.63 309.3C525.946 309.3 526.221 309.4 526.455 309.6C526.688 309.783 526.805 310.092 526.805 310.525C526.805 310.942 526.688 311.258 526.455 311.475C526.221 311.675 525.946 311.775 525.63 311.775C525.313 311.775 525.038 311.675 524.805 311.475C524.588 311.258 524.48 310.942 524.48 310.525ZM543.576 332H541.326V323.675H532.176V332H529.926V314.15H532.176V321.7H541.326V314.15H543.576V332ZM548.482 314.15H550.582V323.95C550.582 324.367 550.573 324.825 550.557 325.325C550.557 325.808 550.548 326.292 550.532 326.775C550.515 327.258 550.49 327.692 550.457 328.075C550.44 328.442 550.423 328.725 550.407 328.925H550.507L560.332 314.15H562.832V332H560.732V322.3C560.732 321.85 560.74 321.367 560.757 320.85C560.773 320.317 560.79 319.808 560.807 319.325C560.84 318.825 560.865 318.383 560.882 318C560.898 317.617 560.915 317.333 560.932 317.15H560.832L550.982 332H548.482V314.15Z" fill="#009745"/>
<defs>
<clipPath id="clip0_746_59">
<rect width="271" height="269" fill="white" transform="translate(153)"/>
</clipPath>
</defs>
</svg>
