<svg width="480" height="120" viewBox="0 0 480 120" fill="none" xmlns="http://www.w3.org/2000/svg">
<path d="M3.344 104V72.76H28.644V104H22.616V78.084H9.372V104H3.344ZM46.7527 104V72.76H72.0527V104H66.0247V78.084H52.7807V104H46.7527ZM116.44 71.88L115.472 77.248H117.232V83.188H111.292V77.16L112.876 71.88H116.44ZM124.712 71.88L123.744 77.248H125.504V83.188H119.564V77.16L121.148 71.88H124.712ZM140.71 88.16C140.71 86.2533 141.047 84.3907 141.722 82.572C142.426 80.724 143.438 79.052 144.758 77.556C146.078 76.0307 147.691 74.828 149.598 73.948C151.505 73.0387 153.675 72.584 156.11 72.584C158.985 72.584 161.463 73.2147 163.546 74.476C165.658 75.7373 167.227 77.38 168.254 79.404L163.59 82.616C163.062 81.4427 162.373 80.5187 161.522 79.844C160.671 79.14 159.762 78.656 158.794 78.392C157.826 78.0987 156.873 77.952 155.934 77.952C154.409 77.952 153.074 78.26 151.93 78.876C150.815 79.492 149.877 80.2987 149.114 81.296C148.351 82.2933 147.779 83.408 147.398 84.64C147.046 85.872 146.87 87.104 146.87 88.336C146.87 89.7147 147.09 91.0493 147.53 92.34C147.97 93.6013 148.586 94.7307 149.378 95.728C150.199 96.696 151.167 97.4733 152.282 98.06C153.426 98.6173 154.673 98.896 156.022 98.896C156.99 98.896 157.973 98.7347 158.97 98.412C159.967 98.0893 160.891 97.576 161.742 96.872C162.593 96.168 163.253 95.2587 163.722 94.144L168.694 97.004C168.078 98.5587 167.066 99.8787 165.658 100.964C164.279 102.049 162.725 102.871 160.994 103.428C159.263 103.985 157.547 104.264 155.846 104.264C153.617 104.264 151.578 103.809 149.73 102.9C147.882 101.961 146.283 100.729 144.934 99.204C143.614 97.6493 142.573 95.9187 141.81 94.012C141.077 92.076 140.71 90.1253 140.71 88.16ZM194.24 104.44C192.392 104.44 190.72 104.132 189.224 103.516C187.728 102.871 186.452 102.005 185.396 100.92C184.34 99.8053 183.519 98.544 182.932 97.136C182.375 95.6987 182.096 94.188 182.096 92.604C182.096 90.404 182.58 88.3947 183.548 86.576C184.545 84.7573 185.953 83.3053 187.772 82.22C189.62 81.1053 191.791 80.548 194.284 80.548C196.807 80.548 198.963 81.1053 200.752 82.22C202.541 83.3053 203.905 84.7573 204.844 86.576C205.812 88.3653 206.296 90.3013 206.296 92.384C206.296 92.736 206.281 93.1027 206.252 93.484C206.223 93.836 206.193 94.1293 206.164 94.364H188.344C188.461 95.5373 188.799 96.564 189.356 97.444C189.943 98.324 190.676 98.9987 191.556 99.468C192.465 99.908 193.433 100.128 194.46 100.128C195.633 100.128 196.733 99.8493 197.76 99.292C198.816 98.7053 199.535 97.9427 199.916 97.004L204.976 98.412C204.419 99.5853 203.612 100.627 202.556 101.536C201.529 102.445 200.312 103.164 198.904 103.692C197.496 104.191 195.941 104.44 194.24 104.44ZM188.212 90.624H200.268C200.151 89.4507 199.813 88.4387 199.256 87.588C198.728 86.708 198.024 86.0333 197.144 85.564C196.264 85.0653 195.281 84.816 194.196 84.816C193.14 84.816 192.172 85.0653 191.292 85.564C190.441 86.0333 189.737 86.708 189.18 87.588C188.652 88.4387 188.329 89.4507 188.212 90.624ZM235.144 104.44C233.355 104.44 231.771 104.044 230.392 103.252C229.043 102.431 227.987 101.331 227.224 99.952V113.372H221.328V80.944H226.476V84.904C227.356 83.5547 228.471 82.4987 229.82 81.736C231.169 80.944 232.709 80.548 234.44 80.548C235.995 80.548 237.417 80.856 238.708 81.472C240.028 82.088 241.172 82.9533 242.14 84.068C243.108 85.1533 243.856 86.4147 244.384 87.852C244.941 89.26 245.22 90.7853 245.22 92.428C245.22 94.6573 244.78 96.6813 243.9 98.5C243.049 100.319 241.861 101.771 240.336 102.856C238.84 103.912 237.109 104.44 235.144 104.44ZM233.164 99.424C234.073 99.424 234.895 99.2333 235.628 98.852C236.361 98.4707 236.992 97.9573 237.52 97.312C238.077 96.6373 238.488 95.8893 238.752 95.068C239.045 94.2173 239.192 93.3373 239.192 92.428C239.192 91.46 239.031 90.5653 238.708 89.744C238.415 88.9227 237.975 88.204 237.388 87.588C236.801 86.9427 236.112 86.444 235.32 86.092C234.557 85.74 233.721 85.564 232.812 85.564C232.255 85.564 231.683 85.6667 231.096 85.872C230.539 86.048 229.996 86.312 229.468 86.664C228.94 87.016 228.471 87.4267 228.06 87.896C227.679 88.3653 227.4 88.8787 227.224 89.436V94.848C227.576 95.6987 228.045 96.476 228.632 97.18C229.248 97.884 229.952 98.4413 230.744 98.852C231.536 99.2333 232.343 99.424 233.164 99.424ZM260.655 104V80.944H273.503C275.087 80.944 276.363 81.208 277.331 81.736C278.328 82.264 279.061 82.9533 279.531 83.804C280 84.6547 280.235 85.564 280.235 86.532C280.235 87.8227 279.941 88.952 279.355 89.92C278.797 90.888 277.917 91.636 276.715 92.164C278.064 92.5453 279.164 93.2053 280.015 94.144C280.865 95.0533 281.291 96.256 281.291 97.752C281.291 99.1893 280.953 100.377 280.279 101.316C279.604 102.225 278.636 102.9 277.375 103.34C276.113 103.78 274.617 104 272.887 104H260.655ZM266.243 99.996H272.711C273.239 99.996 273.723 99.864 274.163 99.6C274.603 99.336 274.94 98.984 275.175 98.544C275.439 98.104 275.571 97.62 275.571 97.092C275.571 96.5347 275.453 96.0507 275.219 95.64C274.984 95.2 274.647 94.8627 274.207 94.628C273.796 94.364 273.312 94.232 272.755 94.232H266.243V99.996ZM266.243 90.536H272.007C272.535 90.536 273.004 90.404 273.415 90.14C273.825 89.876 274.133 89.524 274.339 89.084C274.573 88.644 274.691 88.16 274.691 87.632C274.691 86.8693 274.441 86.2387 273.943 85.74C273.473 85.212 272.843 84.948 272.051 84.948H266.243V90.536ZM297.016 104V80.944H302.912V104H297.016ZM297.016 77.732V71.88H302.912V77.732H297.016ZM319.671 104V80.944H334.939V86.092H325.567V104H319.671ZM350.156 82.924L351.168 77.512H349.408V71.616H355.304V77.644L353.764 82.924H350.156ZM358.428 82.924L359.44 77.512H357.68V71.616H363.576V77.644L362.036 82.924H358.428Z" fill="#FFBC35"/>
<path d="M1.47709 24.76C1.47709 23.2867 1.72643 21.8473 2.22509 20.442C2.74643 19.014 3.49443 17.722 4.46909 16.566C5.46643 15.3873 6.67909 14.458 8.10709 13.778C9.53509 13.0753 11.1558 12.724 12.9691 12.724C15.1224 12.724 16.9698 13.2227 18.5111 14.22C20.0524 15.1947 21.1971 16.4527 21.9451 17.994L19.5311 19.558C19.0551 18.538 18.4431 17.7333 17.6951 17.144C16.9698 16.532 16.1764 16.1013 15.3151 15.852C14.4764 15.6027 13.6491 15.478 12.8331 15.478C11.4958 15.478 10.3058 15.75 9.26309 16.294C8.24309 16.838 7.38176 17.5633 6.67909 18.47C5.97643 19.3767 5.44376 20.3967 5.08109 21.53C4.74109 22.6407 4.57109 23.7627 4.57109 24.896C4.57109 26.1427 4.77509 27.344 5.18309 28.5C5.61376 29.656 6.20309 30.676 6.95109 31.56C7.69909 32.444 8.58309 33.1467 9.60309 33.668C10.6231 34.1893 11.7338 34.45 12.9351 34.45C13.7738 34.45 14.6351 34.3027 15.5191 34.008C16.4031 33.7133 17.2304 33.26 18.0011 32.648C18.7718 32.0133 19.3838 31.1973 19.8371 30.2L22.3871 31.594C21.8884 32.7953 21.1178 33.8153 20.0751 34.654C19.0324 35.4927 17.8651 36.1273 16.5731 36.558C15.3038 36.9887 14.0458 37.204 12.7991 37.204C11.1444 37.204 9.62576 36.8527 8.24309 36.15C6.86043 35.4247 5.65909 34.4727 4.63909 33.294C3.64176 32.0927 2.85976 30.7553 2.29309 29.282C1.74909 27.786 1.47709 26.2787 1.47709 24.76ZM34.5809 37V19.252H37.5729V37H34.5809ZM34.5809 15.92V12.18H37.5729V15.92H34.5809ZM49.6928 37.136V34.45C50.2821 34.45 50.8035 34.3027 51.2568 34.008C51.7328 33.6907 52.1521 33.1693 52.5148 32.444C52.8775 31.696 53.1608 30.676 53.3648 29.384C53.5915 28.0693 53.7388 26.4033 53.8068 24.386L54.0108 19.252H66.0808V37H63.0888V21.904H56.6628L56.5948 24.658C56.5041 27.0833 56.3001 29.1007 55.9828 30.71C55.6655 32.3193 55.2235 33.5887 54.6568 34.518C54.0901 35.4473 53.3875 36.116 52.5488 36.524C51.7328 36.932 50.7808 37.136 49.6928 37.136ZM79.7191 37V19.252H82.7111V25.304H87.1311C89.2164 25.304 90.7917 25.8367 91.8571 26.902C92.9451 27.9447 93.4891 29.316 93.4891 31.016C93.4891 32.1493 93.2511 33.1693 92.7751 34.076C92.3217 34.9827 91.6417 35.6967 90.7351 36.218C89.8284 36.7393 88.6951 37 87.3351 37H79.7191ZM82.7111 34.654H86.9271C87.7657 34.654 88.4344 34.4953 88.9331 34.178C89.4544 33.838 89.8397 33.396 90.0891 32.852C90.3384 32.308 90.4631 31.7187 90.4631 31.084C90.4631 30.472 90.3497 29.9053 90.1231 29.384C89.8964 28.8627 89.5224 28.4433 89.0011 28.126C88.4797 27.8087 87.7657 27.65 86.8591 27.65H82.7111V34.654ZM105.559 37V19.252H116.507V21.904H108.551V37H105.559ZM136.164 37.34C134.826 37.34 133.614 37.102 132.526 36.626C131.438 36.1273 130.497 35.4587 129.704 34.62C128.91 33.7587 128.298 32.7727 127.868 31.662C127.437 30.5513 127.222 29.384 127.222 28.16C127.222 26.9133 127.437 25.7347 127.868 24.624C128.298 23.5133 128.91 22.5387 129.704 21.7C130.497 20.8387 131.438 20.17 132.526 19.694C133.636 19.1953 134.849 18.946 136.164 18.946C137.501 18.946 138.714 19.1953 139.802 19.694C140.89 20.17 141.83 20.8387 142.624 21.7C143.44 22.5387 144.063 23.5133 144.494 24.624C144.924 25.7347 145.14 26.9133 145.14 28.16C145.14 29.384 144.924 30.5513 144.494 31.662C144.063 32.7727 143.451 33.7587 142.658 34.62C141.864 35.4587 140.912 36.1273 139.802 36.626C138.714 37.102 137.501 37.34 136.164 37.34ZM130.282 28.194C130.282 29.418 130.542 30.5287 131.064 31.526C131.608 32.5233 132.322 33.3167 133.206 33.906C134.09 34.4727 135.076 34.756 136.164 34.756C137.252 34.756 138.238 34.4613 139.122 33.872C140.028 33.2827 140.742 32.4893 141.264 31.492C141.808 30.472 142.08 29.35 142.08 28.126C142.08 26.902 141.808 25.7913 141.264 24.794C140.742 23.7967 140.028 23.0033 139.122 22.414C138.238 21.8247 137.252 21.53 136.164 21.53C135.076 21.53 134.09 21.836 133.206 22.448C132.322 23.0373 131.608 23.8307 131.064 24.828C130.542 25.8253 130.282 26.9473 130.282 28.194ZM165.459 37.34C164.122 37.34 162.898 37.102 161.787 36.626C160.699 36.1273 159.747 35.4473 158.931 34.586C158.138 33.7247 157.514 32.7387 157.061 31.628C156.63 30.5173 156.415 29.3387 156.415 28.092C156.415 26.4147 156.789 24.8847 157.537 23.502C158.285 22.1193 159.339 21.02 160.699 20.204C162.059 19.3653 163.634 18.946 165.425 18.946C167.17 18.946 168.689 19.3427 169.981 20.136C171.296 20.9067 172.27 21.9493 172.905 23.264L169.981 24.182C169.528 23.3433 168.893 22.6973 168.077 22.244C167.261 21.768 166.354 21.53 165.357 21.53C164.269 21.53 163.272 21.8133 162.365 22.38C161.481 22.9467 160.778 23.7287 160.257 24.726C159.736 25.7007 159.475 26.8227 159.475 28.092C159.475 29.3387 159.736 30.472 160.257 31.492C160.801 32.4893 161.515 33.2827 162.399 33.872C163.306 34.4613 164.303 34.756 165.391 34.756C166.094 34.756 166.762 34.6313 167.397 34.382C168.054 34.1327 168.621 33.804 169.097 33.396C169.596 32.9653 169.936 32.5007 170.117 32.002L173.041 32.886C172.678 33.7473 172.123 34.518 171.375 35.198C170.65 35.8553 169.777 36.3767 168.757 36.762C167.76 37.1473 166.66 37.34 165.459 37.34ZM185.237 37V19.252H199.959V37H196.967V21.904H188.229V37H185.237ZM231.04 37V19.252H240.22C241.286 19.252 242.17 19.4673 242.872 19.898C243.575 20.306 244.096 20.8387 244.436 21.496C244.799 22.1533 244.98 22.856 244.98 23.604C244.98 24.556 244.754 25.4173 244.3 26.188C243.847 26.936 243.19 27.5027 242.328 27.888C243.348 28.1827 244.176 28.7153 244.81 29.486C245.445 30.234 245.762 31.1633 245.762 32.274C245.762 33.2713 245.524 34.1213 245.048 34.824C244.572 35.5267 243.904 36.0707 243.042 36.456C242.181 36.8187 241.184 37 240.05 37H231.04ZM233.896 34.892H239.982C240.526 34.892 241.014 34.756 241.444 34.484C241.898 34.212 242.249 33.8493 242.498 33.396C242.748 32.9427 242.872 32.4667 242.872 31.968C242.872 31.424 242.748 30.9367 242.498 30.506C242.272 30.0527 241.943 29.7013 241.512 29.452C241.104 29.18 240.628 29.044 240.084 29.044H233.896V34.892ZM233.896 27.072H239.438C239.982 27.072 240.458 26.936 240.866 26.664C241.274 26.3693 241.592 25.9953 241.818 25.542C242.045 25.0887 242.158 24.6127 242.158 24.114C242.158 23.366 241.909 22.72 241.41 22.176C240.934 21.632 240.311 21.36 239.54 21.36H233.896V27.072ZM258.374 37V19.286H261.366V32.988L271.294 19.252H274.014V37H271.022V23.57L261.23 37H258.374ZM297.189 37.34C295.738 37.34 294.446 36.9773 293.313 36.252C292.18 35.5267 291.284 34.6087 290.627 33.498V44.242H287.635V19.252H290.287V22.584C290.99 21.496 291.908 20.6233 293.041 19.966C294.174 19.286 295.41 18.946 296.747 18.946C297.971 18.946 299.093 19.1953 300.113 19.694C301.133 20.1927 302.017 20.8727 302.765 21.734C303.513 22.5953 304.091 23.5813 304.499 24.692C304.93 25.78 305.145 26.9247 305.145 28.126C305.145 29.8033 304.805 31.3447 304.125 32.75C303.468 34.1553 302.538 35.2773 301.337 36.116C300.136 36.932 298.753 37.34 297.189 37.34ZM296.271 34.756C297.155 34.756 297.948 34.5747 298.651 34.212C299.376 33.8267 299.988 33.328 300.487 32.716C301.008 32.0813 301.405 31.3673 301.677 30.574C301.949 29.7807 302.085 28.9647 302.085 28.126C302.085 27.242 301.926 26.4033 301.609 25.61C301.314 24.8167 300.884 24.114 300.317 23.502C299.773 22.89 299.127 22.414 298.379 22.074C297.654 21.7113 296.86 21.53 295.999 21.53C295.455 21.53 294.888 21.632 294.299 21.836C293.732 22.04 293.188 22.3347 292.667 22.72C292.146 23.0827 291.704 23.502 291.341 23.978C290.978 24.454 290.74 24.964 290.627 25.508V30.574C290.967 31.3447 291.42 32.0473 291.987 32.682C292.554 33.3167 293.211 33.8267 293.959 34.212C294.707 34.5747 295.478 34.756 296.271 34.756ZM325.411 37.34C324.073 37.34 322.861 37.102 321.773 36.626C320.685 36.1273 319.744 35.4587 318.951 34.62C318.157 33.7587 317.545 32.7727 317.115 31.662C316.684 30.5513 316.469 29.384 316.469 28.16C316.469 26.9133 316.684 25.7347 317.115 24.624C317.545 23.5133 318.157 22.5387 318.951 21.7C319.744 20.8387 320.685 20.17 321.773 19.694C322.883 19.1953 324.096 18.946 325.411 18.946C326.748 18.946 327.961 19.1953 329.049 19.694C330.137 20.17 331.077 20.8387 331.871 21.7C332.687 22.5387 333.31 23.5133 333.741 24.624C334.171 25.7347 334.387 26.9133 334.387 28.16C334.387 29.384 334.171 30.5513 333.741 31.662C333.31 32.7727 332.698 33.7587 331.905 34.62C331.111 35.4587 330.159 36.1273 329.049 36.626C327.961 37.102 326.748 37.34 325.411 37.34ZM319.529 28.194C319.529 29.418 319.789 30.5287 320.311 31.526C320.855 32.5233 321.569 33.3167 322.453 33.906C323.337 34.4727 324.323 34.756 325.411 34.756C326.499 34.756 327.485 34.4613 328.369 33.872C329.275 33.2827 329.989 32.4893 330.511 31.492C331.055 30.472 331.327 29.35 331.327 28.126C331.327 26.902 331.055 25.7913 330.511 24.794C329.989 23.7967 329.275 23.0033 328.369 22.414C327.485 21.8247 326.499 21.53 325.411 21.53C324.323 21.53 323.337 21.836 322.453 22.448C321.569 23.0373 320.855 23.8307 320.311 24.828C319.789 25.8253 319.529 26.9473 319.529 28.194ZM355.216 37.34C352.292 37.34 350.082 36.456 348.586 34.688C347.09 32.92 346.342 30.4267 346.342 27.208C346.342 25.0093 346.524 23.162 346.886 21.666C347.249 20.1473 347.793 18.9007 348.518 17.926C349.244 16.9287 350.139 16.124 351.204 15.512C352.27 14.8773 353.494 14.356 354.876 13.948L362.39 11.67L362.56 14.254L355.25 16.464C354.004 16.872 352.961 17.3933 352.122 18.028C351.284 18.6627 350.626 19.4787 350.15 20.476C349.674 21.4733 349.357 22.754 349.198 24.318C349.788 23.1167 350.672 22.1873 351.85 21.53C353.029 20.85 354.4 20.51 355.964 20.51C357.642 20.51 359.081 20.8613 360.282 21.564C361.506 22.244 362.436 23.2073 363.07 24.454C363.728 25.678 364.056 27.0947 364.056 28.704C364.056 30.4267 363.716 31.934 363.036 33.226C362.356 34.518 361.359 35.5267 360.044 36.252C358.73 36.9773 357.12 37.34 355.216 37.34ZM355.216 34.756C357.052 34.756 358.469 34.2233 359.466 33.158C360.486 32.07 360.996 30.6307 360.996 28.84C360.996 27.0947 360.498 25.678 359.5 24.59C358.503 23.502 357.075 22.958 355.216 22.958C354.128 22.958 353.142 23.1847 352.258 23.638C351.397 24.0913 350.706 24.76 350.184 25.644C349.686 26.5053 349.436 27.5707 349.436 28.84C349.436 29.9733 349.652 30.9933 350.082 31.9C350.536 32.784 351.193 33.4867 352.054 34.008C352.916 34.5067 353.97 34.756 355.216 34.756ZM376.51 37V19.252H379.502V26.596H388.75V19.252H391.742V37H388.75V29.248H379.502V37H376.51ZM405.371 37V19.286H408.363V32.988L418.291 19.252H421.011V37H418.019V23.57L408.227 37H405.371ZM434.598 37V19.252H437.59V26.562H439.562L445.138 19.252H448.538L441.908 27.854L449.32 37H445.852L439.562 29.316H437.59V37H434.598Z" fill="#043129"/>
</svg>
