<svg width="60" height="60" viewBox="0 0 60 60" fill="none" xmlns="http://www.w3.org/2000/svg">
<path d="M53.8898 17.9928C53.6057 16.9341 53.048 15.9687 52.2729 15.1935C51.4977 14.4184 50.5323 13.8607 49.4736 13.5766C46.5811 12.4591 18.5586 11.9116 10.4286 13.6078C9.36966 13.8921 8.40417 14.4499 7.629 15.2253C6.85384 16.0007 6.29629 16.9663 6.01232 18.0253C4.70607 23.7541 4.60732 36.1391 6.04482 41.9966C6.32898 43.0553 6.88662 44.0207 7.66177 44.7959C8.43692 45.571 9.40231 46.1287 10.4611 46.4128C16.1898 47.7316 43.4248 47.9166 49.5061 46.4128C50.5648 46.1287 51.5302 45.571 52.3054 44.7959C53.0805 44.0207 53.6382 43.0553 53.9223 41.9966C55.3148 35.7553 55.4136 24.1378 53.8898 17.9928Z" stroke="#FEF5E2" stroke-width="0.5" stroke-linecap="round" stroke-linejoin="round"/>
<path d="M38.2087 29.9936L25.1499 22.5049V37.4824L38.2087 29.9936Z" stroke="#FEF5E2" stroke-width="0.5" stroke-linecap="round" stroke-linejoin="round"/>
</svg>
